<?xml version="1.0" encoding="UTF-8" standalone="no"?>
<!-- Created with Inkscape (http://www.inkscape.org/) -->

<svg
   xmlns:dc="http://purl.org/dc/elements/1.1/"
   xmlns:cc="http://creativecommons.org/ns#"
   xmlns:rdf="http://www.w3.org/1999/02/22-rdf-syntax-ns#"
   xmlns:svg="http://www.w3.org/2000/svg"
   xmlns="http://www.w3.org/2000/svg"
   xmlns:sodipodi="http://sodipodi.sourceforge.net/DTD/sodipodi-0.dtd"
   xmlns:inkscape="http://www.inkscape.org/namespaces/inkscape"
   id="svg2912"
   version="1.1"
   inkscape:version="0.47 r22583"
   width="465"
   height="226"
   sodipodi:docname="logo_outline.svg">
  <metadata
     id="metadata2918">
    <rdf:RDF>
      <cc:Work
         rdf:about="">
        <dc:format>image/svg+xml</dc:format>
        <dc:type
           rdf:resource="http://purl.org/dc/dcmitype/StillImage" />
        <dc:title></dc:title>
      </cc:Work>
    </rdf:RDF>
  </metadata>
  <defs
     id="defs2916">
    <inkscape:perspective
       sodipodi:type="inkscape:persp3d"
       inkscape:vp_x="0 : 0.5 : 1"
       inkscape:vp_y="0 : 1000 : 0"
       inkscape:vp_z="1 : 0.5 : 1"
       inkscape:persp3d-origin="0.5 : 0.33333333 : 1"
       id="perspective2920" />
  </defs>
  <sodipodi:namedview
     pagecolor="#ffffff"
     bordercolor="#666666"
     borderopacity="1"
     objecttolerance="10"
     gridtolerance="10"
     guidetolerance="10"
     inkscape:pageopacity="0"
     inkscape:pageshadow="2"
     inkscape:window-width="1600"
     inkscape:window-height="853"
     id="namedview2914"
     showgrid="false"
     inkscape:zoom="1.4767894"
     inkscape:cx="264.23465"
     inkscape:cy="75.757045"
     inkscape:window-x="0"
     inkscape:window-y="0"
     inkscape:window-maximized="1"
     inkscape:current-layer="svg2912" />
  <path
     style="fill:#000000"
     d="m 231.96357,222.0479 c -0.57658,-1.07734 -1.04832,-2.63124 -1.04832,-3.45311 0,-0.82187 0.70714,-2.20146 1.57143,-3.06574 0.86428,-0.86429 2.66428,-1.57143 4,-1.57143 2.42857,0 2.42857,0 2.42857,-27.5 0,-27.5 0,-27.5 -2.42857,-27.5 -1.33572,0 -3.13572,-0.70714 -4,-1.57143 -0.86429,-0.86428 -1.57143,-2.60918 -1.57143,-3.87755 0,-1.26837 0.63338,-2.83179 1.4075,-3.47425 0.87267,-0.72425 4.19756,-1.05577 8.75,-0.87245 6.74809,0.27174 7.36837,0.47783 7.66205,2.54568 0.17575,1.2375 0.40075,2.24812 0.5,2.24581 0.0993,-0.002 2.39422,-1.1273 5.09993,-2.5 3.66144,-1.85757 6.4928,-2.49581 11.07186,-2.49581 3.38381,0 8.2411,0.7117 10.79397,1.58155 2.55287,0.86985 6.36255,3.25169 8.46595,5.29297 2.10341,2.04128 4.68566,5.49209 5.73833,7.66845 1.07088,2.21399 2.09295,6.89353 2.32031,10.62346 0.27538,4.51777 -0.13189,8.28693 -1.2636,11.69418 -1.0047,3.02485 -3.25308,6.61088 -5.64399,9.00179 -2.21161,2.2116 -6.03283,4.67554 -8.61631,5.55582 -2.55325,0.86998 -7.20554,1.58178 -10.33841,1.58178 -3.13288,0 -7.64287,-0.68685 -10.02222,-1.52633 -2.37934,-0.83948 -5.13592,-2.25923 -6.12572,-3.15499 -1.72036,-1.5569 -1.79965,-1.22707 -1.79965,7.48589 0,9.11455 0,9.11455 8.22878,9.40499 8.0082,0.28265 8.25512,0.36557 9.2116,3.09321 0.66624,1.89997 0.6384,3.34946 -0.0864,4.5 -0.9209,1.46173 -3.30243,1.73532 -17.16329,1.97177 -15.10912,0.25774 -16.15817,0.15467 -17.14233,-1.68426 z m 31.78758,-2.47045 c 0.19849,-1.0341 -0.24589,-2.26471 -0.98751,-2.73469 -0.74161,-0.46998 -4.61089,-0.86141 -8.59839,-0.86983 -7.25,-0.0153 -7.25,-0.0153 -7.25,-11.51531 0,-8.79507 0.30712,-11.5 1.30572,-11.5 0.71815,0 2.80463,1.10586 4.63663,2.45747 1.832,1.3516 5.75718,2.96116 8.72263,3.57678 3.90209,0.81007 6.78044,0.82149 10.41819,0.0413 2.76456,-0.59289 6.61907,-2.16018 8.56557,-3.48286 1.9465,-1.32269 4.61101,-3.98234 5.92112,-5.91034 1.31011,-1.928 2.86013,-5.63888 3.44449,-8.2464 0.58435,-2.60752 0.77727,-6.64276 0.4287,-8.96721 -0.34858,-2.32445 -1.94665,-6.52504 -3.55129,-9.33465 -2.11445,-3.70226 -4.32362,-5.91143 -8.02588,-8.02588 -2.80961,-1.60464 -7.05442,-3.20934 -9.43291,-3.56602 -2.3785,-0.35668 -6.26144,-0.14105 -8.62875,0.47918 -2.36732,0.62023 -5.98207,2.21914 -8.03278,3.55314 -2.05071,1.334 -4.1597,2.42546 -4.68664,2.42546 -0.52695,0 -1.09909,-1.4625 -1.27144,-3.25 -0.31336,-3.24997 -0.31336,-3.24997 -6.31336,-3.24997 -5.41451,0 -6.03045,0.214 -6.31209,2.19304 -0.25758,1.81003 0.31003,2.30975 3.25,2.86129 3.56209,0.66825 3.56209,0.66825 3.56209,29.94567 0,29.27742 0,29.27742 -3.5,29.93402 -2.4502,0.45966 -3.5,1.19291 -3.5,2.44463 0,0.98341 0.31183,2.09984 0.69295,2.48096 0.38112,0.38112 7.013,0.56862 14.73751,0.41667 12.83135,-0.25241 14.07574,-0.43869 14.40544,-2.15645 z m -7.43483,-27.52526 c -2.25441,-1.02383 -5.17049,-3.36638 -6.48017,-5.20566 -1.78371,-2.50499 -2.47512,-5.00543 -2.75533,-9.96457 -0.26768,-4.73725 0.0848,-7.5079 1.2393,-9.74038 0.88737,-1.71598 2.79851,-4.21886 4.24698,-5.56196 1.44847,-1.3431 4.57718,-2.98617 6.95268,-3.65127 2.52081,-0.70578 6.1781,-0.9305 8.78402,-0.53971 2.45571,0.36825 5.91902,1.65942 7.69624,2.86927 1.77722,1.20984 4.15167,3.44206 5.27656,4.96048 1.39914,1.88864 2.16358,4.73175 2.41986,9 0.3076,5.12309 -0.0513,7.03481 -2.00604,10.68649 -1.63266,3.04996 -3.74882,5.17077 -6.73519,6.75 -2.92631,1.54747 -6.0249,2.29554 -9.44726,2.28078 -2.801,-0.0121 -6.93724,-0.85964 -9.19165,-1.88347 z m 18.09893,-3.13123 c 1.65,-1.00386 3.73554,-3.09378 4.63454,-4.64427 0.89899,-1.55049 1.9469,-4.28001 2.32869,-6.06561 0.39164,-1.83166 0.17037,-4.88234 -0.50771,-7 -0.66102,-2.0644 -2.15894,-4.80872 -3.32869,-6.09847 -1.16976,-1.28976 -3.34198,-2.97726 -4.82717,-3.75 -1.48519,-0.77275 -4.79892,-1.40499 -7.36385,-1.40499 -2.94169,0 -6.09828,0.80639 -8.54957,2.18409 -2.47667,1.39197 -4.61145,3.68255 -5.88615,6.31573 -1.10005,2.27239 -1.99021,5.45205 -1.97813,7.0659 0.0121,1.61386 0.84077,4.73428 1.84152,6.93428 1.00076,2.2 2.56161,4.61406 3.46857,5.36458 0.90695,0.75052 3.34076,1.97868 5.40847,2.72924 2.21787,0.80506 5.39972,1.12478 7.75948,0.77968 2.2,-0.32173 5.35,-1.40631 7,-2.41016 z m 14.54832,33.12694 c -0.57658,-1.07734 -1.04832,-2.63124 -1.04832,-3.45311 0,-0.82187 0.70714,-2.20146 1.57143,-3.06574 0.86428,-0.86429 2.66428,-1.57143 4,-1.57143 2.42857,0 2.42857,0 2.42857,-27.5 0,-27.5 0,-27.5 -2.42857,-27.5 -1.33572,0 -3.13572,-0.70714 -4,-1.57143 -0.86429,-0.86428 -1.57143,-2.60918 -1.57143,-3.87755 0,-1.26837 0.63338,-2.83179 1.4075,-3.47425 0.87267,-0.72425 4.19756,-1.05577 8.75,-0.87245 6.74809,0.27174 7.36837,0.47783 7.66205,2.54568 0.17575,1.2375 0.40075,2.24812 0.5,2.24581 0.0992,-0.002 2.39422,-1.1273 5.09993,-2.5 3.66144,-1.85757 6.4928,-2.49581 11.07186,-2.49581 3.38381,0 8.2411,0.7117 10.79397,1.58155 2.55287,0.86985 6.36255,3.25169 8.46595,5.29297 2.10341,2.04128 4.68566,5.49209 5.73833,7.66845 1.07088,2.21399 2.09295,6.89353 2.32031,10.62346 0.27538,4.51777 -0.13189,8.28693 -1.2636,11.69418 -1.0047,3.02485 -3.25308,6.61088 -5.64399,9.00179 -2.21161,2.2116 -6.03283,4.67554 -8.61631,5.55582 -2.55325,0.86998 -7.20554,1.58178 -10.33841,1.58178 -3.13288,0 -7.64287,-0.68685 -10.02222,-1.52633 -2.37934,-0.83948 -5.13592,-2.25923 -6.12572,-3.15499 -1.72036,-1.5569 -1.79965,-1.22707 -1.79965,7.48589 0,9.11455 0,9.11455 8.22878,9.40499 8.0082,0.28265 8.25512,0.36557 9.2116,3.09321 0.66624,1.89997 0.6384,3.34946 -0.0864,4.5 -0.9209,1.46173 -3.30243,1.73532 -17.16329,1.97177 -15.10912,0.25774 -16.15817,0.15467 -17.14233,-1.68426 z m 31.78758,-2.47045 c 0.19849,-1.0341 -0.24589,-2.26471 -0.98751,-2.73469 -0.74161,-0.46998 -4.61089,-0.86141 -8.59839,-0.86983 -7.25,-0.0153 -7.25,-0.0153 -7.25,-11.51531 0,-8.79507 0.30712,-11.5 1.30572,-11.5 0.71815,0 2.80463,1.10586 4.63663,2.45747 1.832,1.3516 5.75718,2.96116 8.72263,3.57678 3.90209,0.81007 6.78044,0.82149 10.41819,0.0413 2.76456,-0.59289 6.61907,-2.16018 8.56557,-3.48286 1.9465,-1.32269 4.61101,-3.98234 5.92112,-5.91034 1.31011,-1.928 2.86013,-5.63888 3.44449,-8.2464 0.58435,-2.60752 0.77727,-6.64276 0.4287,-8.96721 -0.34858,-2.32445 -1.94665,-6.52504 -3.55129,-9.33465 -2.11445,-3.70226 -4.32362,-5.91143 -8.02588,-8.02588 -2.80961,-1.60464 -7.05442,-3.20934 -9.43291,-3.56602 -2.3785,-0.35668 -6.26144,-0.14105 -8.62875,0.47918 -2.36732,0.62023 -5.98207,2.21914 -8.03278,3.55314 -2.05071,1.334 -4.1597,2.42546 -4.68664,2.42546 -0.52695,0 -1.09909,-1.4625 -1.27144,-3.25 -0.31336,-3.24997 -0.31336,-3.24997 -6.31336,-3.24997 -5.41451,0 -6.03045,0.214 -6.31209,2.19304 -0.25758,1.81003 0.31003,2.30975 3.25,2.86129 3.56209,0.66825 3.56209,0.66825 3.56209,29.94567 0,29.27742 0,29.27742 -3.5,29.93402 -2.4502,0.45966 -3.5,1.19291 -3.5,2.44463 0,0.98341 0.31183,2.09984 0.69295,2.48096 0.38112,0.38112 7.013,0.56862 14.73751,0.41667 12.83135,-0.25241 14.07574,-0.43869 14.40544,-2.15645 z m -7.43483,-27.52526 c -2.25441,-1.02383 -5.17049,-3.36638 -6.48017,-5.20566 -1.78371,-2.50499 -2.47512,-5.00543 -2.75533,-9.96457 -0.26768,-4.73725 0.0848,-7.5079 1.2393,-9.74038 0.88737,-1.71598 2.79851,-4.21886 4.24698,-5.56196 1.44847,-1.3431 4.57718,-2.98617 6.95268,-3.65127 2.52081,-0.70578 6.1781,-0.9305 8.78402,-0.53971 2.45571,0.36825 5.91902,1.65942 7.69624,2.86927 1.77722,1.20984 4.15167,3.44206 5.27656,4.96048 1.39914,1.88864 2.16358,4.73175 2.41986,9 0.3076,5.12309 -0.0513,7.03481 -2.00604,10.68649 -1.63266,3.04996 -3.74882,5.17077 -6.73519,6.75 -2.92631,1.54747 -6.0249,2.29554 -9.44726,2.28078 -2.801,-0.0121 -6.93724,-0.85964 -9.19165,-1.88347 z m 18.09893,-3.13123 c 1.65,-1.00386 3.73554,-3.09378 4.63454,-4.64427 0.89899,-1.55049 1.9469,-4.28001 2.32869,-6.06561 0.39164,-1.83166 0.17037,-4.88234 -0.50771,-7 -0.66102,-2.0644 -2.15894,-4.80872 -3.32869,-6.09847 -1.16976,-1.28976 -3.34198,-2.97726 -4.82717,-3.75 -1.48519,-0.77275 -4.79892,-1.40499 -7.36385,-1.40499 -2.94169,0 -6.09828,0.80639 -8.54957,2.18409 -2.47667,1.39197 -4.61145,3.68255 -5.88615,6.31573 -1.10005,2.27239 -1.99021,5.45205 -1.97813,7.0659 0.0121,1.61386 0.84077,4.73428 1.84152,6.93428 1.00076,2.2 2.56161,4.61406 3.46857,5.36458 0.90695,0.75052 3.34076,1.97868 5.40847,2.72924 2.21787,0.80506 5.39972,1.12478 7.75948,0.77968 2.2,-0.32173 5.35,-1.40631 7,-2.41016 z M 9.3429679,200.87775 c -1.1855103,-1.30998 -1.8822603,-3.56697 -1.8822603,-6.09723 0,-2.80626 0.57834,-4.44025 1.9184003,-5.42013 1.0551201,-0.77152 2.8449001,-1.40966 3.9772801,-1.41808 1.13237,-0.008 2.69087,-0.41544 3.46331,-0.90447 1.1989,-0.75903 1.23395,-6.20855 0.2395,-37.23469 -0.64072,-19.99004 -1.16023,-39.15803 -1.15445,-42.59553 0.0105,-6.25 0.0105,-6.25 -4.26699,-6.25 -2.3526201,0 -5.2776204,-0.70052 -6.5000004,-1.556707 -1.72964,-1.211485 -2.2225,-2.542035 -2.2225,-5.999995 0,-3.10996 0.60015,-5.04345 2,-6.44329 1.85798,-1.85799 3.33333,-2 20.7774904,-2 15.37663,0 19.18002,0.28194 21,1.5567 1.78109,1.24752 2.22251,2.52725 2.22251,6.4433 0,3.91605 -0.44142,5.19577 -2.22251,6.443285 -1.39827,0.979387 -4.39773,1.556707 -8.0879,1.556707 -5.86539,0 -5.86539,0 -5.31837,3.75 0.30086,2.0625 0.84497,19.19589 1.20913,38.07419 0.66213,34.32419 0.66213,34.32419 8.0722,12.5 4.07554,-12.0033 8.28967,-24.18669 9.36472,-27.07419 1.95466,-5.25 1.95466,-5.25 -3.03131,-5.25 -3.65263,0 -5.5208,-0.53483 -6.98596,-2 -1.39985,-1.39984 -2,-3.33333 -2,-6.4433 0,-3.45795 0.49286,-4.7885 2.2225,-6 1.22238,-0.85618 4.07721,-1.5567 6.34406,-1.5567 4.12155,0 4.12155,0 4.79086,-22.749992 0.36813,-12.512499 0.95797,-31.836439 1.31076,-42.942089 0.64145,-20.1921 0.64145,-20.1921 -2.26337,-20.81921 -1.59765,-0.34491 -3.89304,-1.02526 -5.10087,-1.51189 -1.46052,-0.58844 -2.42451,-2.10255 -2.87815,-4.52067 -0.52677,-2.80792 -0.23029,-4.24165 1.30194,-6.2960104 1.94961,-2.61397 2.21061,-2.66496 15.03937,-2.93854 12.35839,-0.26354 13.19533,-0.15678 15.67809,2 2.03897,1.77127 4.84334,8.6221204 12.59903,30.7784104 5.48695,15.675 10.238765,29.175 10.559605,30 0.32083,0.825 5.194537,-11.96157 10.830457,-28.41461 8.27149,-24.14713 10.77058,-30.3648601 12.96218,-32.2500004 2.53897,-2.18392 3.54453,-2.33539 15.50431,-2.33539 11.68297,0 12.95206,0.17991 14.67151,2.07987 1.18551,1.30998 1.88226,3.5669704 1.88226,6.0972304 0,2.80625 -0.57834,4.44025 -1.91841,5.42013 -1.05512,0.77152 -2.84489,1.40966 -3.97727,1.41808 -1.13238,0.008 -2.69087,0.41543 -3.46332,0.90447 -1.19889,0.75902 -1.23394,6.20855 -0.23949,37.23469 0.64072,19.99004 1.16022,39.158029 1.15444,42.595521 -0.0105,6.25 -0.0105,6.25 4.26699,6.25 2.35263,0 5.27763,0.70052 6.5,1.5567 1.72965,1.2115 2.22251,2.54205 2.22251,6 0,3.10997 -0.60016,5.04346 -2,6.4433 -1.85799,1.85799 -3.33333,2 -20.77749,2 -15.37663,0 -19.18002,-0.28194 -21,-1.5567 -1.78109,-1.24753 -2.22251,-2.52725 -2.22251,-6.4433 0,-3.91605 0.44142,-5.19577 2.22251,-6.4433 1.39827,-0.97939 4.39772,-1.5567 8.08789,-1.5567 5.8654,0 5.8654,0 5.31838,-3.75 -0.30086,-2.0625 -0.84497,-19.195882 -1.20914,-38.074181 -0.66212,-34.32419 -0.66212,-34.32419 -8.07219,-12.5 -4.07554,12.0033 -8.28967,24.18669 -9.36473,27.07419 -1.95465,5.249999 -1.95465,5.249999 3.03132,5.249999 3.65263,0 5.52079,0.53483 6.98596,2 1.39984,1.39984 2,3.33333 2,6.44329 0,3.45796 -0.49286,4.78851 -2.22251,5.999995 -1.22237,0.856187 -4.0772,1.556707 -6.34405,1.556707 -4.12155,0 -4.12155,0 -4.79087,22.75 -0.36812,12.5125 -0.95796,31.83644 -1.31076,42.94209 -0.64144,20.19209 -0.64144,20.19209 2.26337,20.84295 1.59765,0.35797 3.73053,0.87648 4.73973,1.15224 1.00919,0.27577 2.28764,1.80013 2.841,3.38748 0.88839,2.54846 1.17928,2.7129 2.48652,1.40567 0.81424,-0.81424 2.57328,-1.48043 3.909,-1.48043 2.42857,0 2.42857,0 2.42857,-27 0,-27 0,-27 -2.42857,-27 -1.33572,0 -3.13572,-0.70714 -4,-1.57143 -0.86429,-0.86428 -1.57143,-2.35328 -1.57143,-3.30887 0,-0.95559 0.57239,-2.52023 1.27198,-3.47698 1.05048,-1.43661 2.57426,-1.68758 8.75,-1.44113 7.47802,0.29841 7.47802,0.29841 7.75844,12.5041 0.28043,12.20569 0.28043,12.20569 4.89894,9.75 3.30179,-1.75558 6.19663,-2.45569 10.15385,-2.45569 3.48951,0 7.03801,0.7337 9.60107,1.98516 2.23614,1.09184 5.19072,3.64445 6.56572,5.67247 2.37357,3.50083 2.51605,4.51302 2.8173,20.01484 0.3173,16.32753 0.3173,16.32753 2.75979,16.32753 1.34336,0 3.19666,0.88081 4.11842,1.95735 1.66376,1.94313 1.68589,1.94313 3.04692,0 1.19644,-1.70816 2.57319,-1.95735 10.81427,-1.95735 9.4433,0 9.4433,0 9.4433,-16.5 0,-16.5 0,-16.5 -6.47695,-16.5 -5.70668,0 -6.66123,-0.28126 -8.02657,-2.36502 -1.18541,-1.80918 -1.31132,-2.9918 -0.53569,-5.03185 1.01392,-2.66682 1.01392,-2.66682 12.77657,-2.38497 11.76264,0.28184 11.76264,0.28184 12.03253,21.53184 0.26989,21.25 0.26989,21.25 9.67857,21.25 7.22001,0 9.77423,0.36555 10.98011,1.57143 0.86429,0.86428 1.57143,2.57428 1.57143,3.8 0,1.22571 -0.54,2.76857 -1.2,3.42857 -0.86869,0.86869 -8.0334,1.2 -25.95031,1.2 -22.50517,0 -24.84553,-0.15874 -25.8,-1.75 -0.9997,-1.66667 -1.09968,-1.66667 -2.09938,0 -0.89556,1.49305 -2.62816,1.75 -11.8,1.75 -7.02802,0 -11.16581,-0.4155 -11.95031,-1.2 -0.66,-0.66 -1.2,-2.20286 -1.2,-3.42857 0,-1.22572 0.70714,-2.93572 1.57143,-3.8 0.86428,-0.86429 2.66428,-1.57143 4,-1.57143 2.42857,0 2.42857,0 2.37213,-11.75 -0.031,-6.4625 -0.59355,-13.325 -1.25,-15.25 -0.8527,-2.50045 -2.2924,-4.03662 -5.04124,-5.37902 -3.22597,-1.57541 -4.44452,-1.70021 -7.54152,-0.77232 -2.03162,0.60869 -5.02517,2.49494 -6.65233,4.19168 -2.92242,3.04738 -2.96249,3.24263 -3.28794,16.02232 -0.32947,12.93734 -0.32947,12.93734 2.17857,12.93734 1.37942,0 3.21519,0.70714 4.07947,1.57143 0.86429,0.86428 1.57143,2.57428 1.57143,3.8 0,1.22571 -0.54,2.76857 -1.2,3.42857 -0.7847,0.7847 -4.92551,1.2 -11.96482,1.2 -9.83507,0 -10.85974,-0.17737 -11.86389,-2.05364 -1.08407,-2.02561 -1.12648,-2.01879 -3.10776,0.5 -1.96798,2.50189 -2.26955,2.55364 -14.88035,2.55364 -11.914382,0 -13.064252,-0.16733 -15.461392,-2.25 -1.99692,-1.73495 -4.8734,-8.77391 -12.56601,-30.75 -5.48695,-15.675 -10.23877,-29.175 -10.5596,-30 -0.32084,-0.825 -5.19454,11.96157 -10.83046,28.4146 -8.2715,24.14714 -10.77058,30.36487 -12.96218,32.25 -2.53897,2.18393 -3.54453,2.3354 -15.50431,2.3354 -11.68297,0 -12.95206,-0.17991 -14.6715101,-2.07987 z m 28.9975901,-3.03603 c 1.35624,-1.57815 6.35138,-14.78406 12.59143,-33.28865 7.83427,-23.23214 10.70631,-30.60273 11.83953,-30.3841 0.98811,0.19063 5.18572,10.8155 12.36133,31.28865 6.13637,17.50801 11.7286,31.87045 12.84906,33 1.69601,1.70977 3.58686,2.04939 13.030012,2.34037 9.41648,0.29016 11.33066,0.0829 12.97473,-1.40499 1.06073,-0.95994 1.9286,-3.00978 1.9286,-4.55518 0,-1.75454 -0.72645,-3.19862 -1.93426,-3.84502 -1.06384,-0.56935 -3.28728,-1.03518 -4.94098,-1.03518 -1.6537,0 -3.25246,-0.3976 -3.55279,-0.88355 -0.30034,-0.48596 0.11603,-20.39846 0.92527,-44.25 0.80924,-23.85155 1.47841,-43.8717 1.48705,-44.48922 0.009,-0.618257 2.33789,-1.345892 5.18358,-1.619332 3.41964,-0.32858 5.61852,-1.11286 6.5,-2.31836 0.73267,-1.00198 1.33213,-2.63578 1.33213,-3.63066 0,-0.99488 -0.9,-2.70887 -2,-3.80887 -1.55556,-1.55556 -3.33333,-2 -8,-2 -3.91821,0 -6,-0.40639 -6,-1.17126 0,-0.64419 0.60887,-1.88169 1.35304,-2.75 0.74418,-0.86831 5.75453,-14.516239 11.13412,-30.328739 5.69971,-16.75344 10.2936,-28.75 11.00936,-28.75 0.90503,0 1.39364,4.93449 1.85661,18.75 0.34558,10.3125 0.91824,29.37101 1.27258,42.352249 0.64426,23.602252 0.64426,23.602252 -6.18111,24.150122 -4.9587,0.39804 -7.18355,1.0377 -8.13499,2.33888 -0.72029,0.98505 -1.30961,2.51898 -1.30961,3.40874 0,0.88976 0.63785,2.49125 1.41744,3.55887 1.29326,1.77108 2.95219,1.96861 18.93629,2.25484 16.58837,0.29705 17.62846,0.2041 19.58256,-1.75 1.13504,-1.13504 2.06371,-2.8777 2.06371,-3.87258 0,-0.99488 -0.59946,-2.62868 -1.33213,-3.63066 -0.88148,-1.2055 -3.08036,-1.98978 -6.5,-2.31836 -2.84233,-0.27311 -5.17358,-0.77682 -5.18055,-1.11934 -0.007,-0.34252 -0.68105,-20.354742 -1.49794,-44.471591 -0.81689,-24.11686 -1.23462,-44.25436 -0.9283,-44.75 0.30632,-0.49565 1.90998,-0.90117 3.56368,-0.90117 1.6537,0 3.87714,-0.46583 4.94098,-1.03519 1.23941,-0.6633 1.93426,-2.09196 1.93426,-3.97694 0,-2.02324 -0.76964,-3.4460501 -2.46493,-4.5568504 -1.97553,-1.29442 -4.57418,-1.54718 -13.08842,-1.27305 -10.01561,0.32246 -10.75212,0.49171 -12.87175,2.9579304 -1.35661,1.57843 -6.35047,14.78078 -12.59164,33.28865 -7.83426,23.23214 -10.7063,30.60273 -11.83953,30.3841 -0.988107,-0.19063 -5.185702,-10.8155 -12.361322,-31.28865 -6.13636,-17.50801 -11.7286,-31.87045 -12.84906,-33.0000001 -1.696,-1.7097703 -3.58686,-2.0493903 -13.03002,-2.3403703 -9.41647,-0.29016 -11.33065,-0.0829 -12.97472,1.40498 -1.06073,0.9599503 -1.9286,3.0097904 -1.9286,4.5551904 0,1.75454 0.72645,3.19862 1.93426,3.84501 1.06384,0.56936 3.28728,1.03519 4.94098,1.03519 1.6537,0 3.25245,0.3976 3.55279,0.88355 0.30034,0.48596 -0.11604,20.39846 -0.92527,44.25 -0.80924,23.851549 -1.47841,43.871691 -1.48705,44.489211 -0.009,0.61826 -2.33789,1.3459 -5.18359,1.61934 -3.41964,0.32858 -5.61851,1.11286 -6.5,2.31836 -0.73267,1.00198 -1.33212,2.63578 -1.33212,3.63066 0,0.99488 0.9,2.70887 2,3.80887 1.55555,1.55556 3.33333,2 8,2 3.9182,0 6,0.40639 6,1.17126 0,0.64419 -0.60887,1.88169 -1.35304,2.75 -0.74418,0.86831 -5.75453,14.51624 -11.13412,30.32874 -5.69971,16.75344 -10.29361,28.75 -11.00936,28.75 -0.90504,0 -1.39365,-4.9345 -1.85661,-18.75 -0.34558,-10.3125 -0.91824,-29.37101 -1.27258,-42.35225 -0.64426,-23.602257 -0.64426,-23.602257 6.18111,-24.150132 4.95869,-0.39803 7.18354,-1.03769 8.13499,-2.33887 0.72028,-0.98505 1.30961,-2.51898 1.30961,-3.40874 0,-0.88976 -0.63785,-2.49125 -1.41744,-3.55887 -1.29327,-1.77108 -2.95219,-1.96861 -18.93629,-2.25484 -16.5883701,-0.29705 -17.6284604,-0.2041 -19.5825604,1.75 -1.13504,1.13504 -2.06371,2.8777 -2.06371,3.87258 0,0.99488 0.59945,2.62868 1.33212,3.63066 0.88149,1.2055 3.0803603,1.98978 6.5000004,2.31836 2.84233,0.27311 5.17358,0.776805 5.18056,1.119335 0.007,0.342517 0.68105,20.354737 1.49794,44.471597 0.81689,24.11686 1.23462,44.25436 0.9283,44.75 -0.30633,0.49564 -1.90998,0.90117 -3.56368,0.90117 -1.6537,0 -3.87714,0.46583 -4.94098,1.03518 -1.23162,0.65915 -1.9342601,2.09159 -1.9342601,3.9433 0,1.87111 0.8023301,3.48344 2.2500001,4.52152 1.81208,1.29939 4.35952,1.55371 13.08862,1.3067 10.26981,-0.2906 10.9566,-0.44398 13.08668,-2.9226 z m 52.17723,-17.1341 c -0.71248,-1.7875 -5.26111,-14.725 -10.10807,-28.75 -4.84697,-14.025 -9.41607,-26.21043 -10.15356,-27.07874 -0.7375,-0.86831 -1.3409,-2.05172 -1.3409,-2.62981 0,-0.57809 2.76047,-1.25074 6.13438,-1.49479 4.48129,-0.32415 6.50238,-0.947 7.5,-2.31132 0.75109,-1.02718 1.36562,-2.59558 1.36562,-3.48534 0,-0.88976 -0.62594,-2.47377 -1.39098,-3.52002 -1.08492,-1.48371 -2.97576,-1.99183 -8.59336,-2.30925 -7.20237,-0.40697 -7.20237,-0.40697 -6.58374,-35.538841 0.34024,-19.32254 0.87289,-38.41834 1.18366,-42.43511 0.37813,-4.88745 0.94864,-7.17818 1.72473,-6.92517 0.63783,0.20793 5.67688,13.27657 11.19789,29.04143 5.52101,15.76485 10.58351,29.208679 11.25,29.875169 0.66649,0.66649 1.2118,1.74271 1.2118,2.39161 0,0.72997 -2.33892,1.34899 -6.13438,1.62353 -4.48129,0.32414 -6.50238,0.947 -7.5,2.31132 -0.75109,1.02718 -1.36562,2.59558 -1.36562,3.48534 0,0.88976 0.62594,2.47377 1.39098,3.52002 1.08492,1.48371 2.97575,1.99183 8.59335,2.30925 7.20237,0.406965 7.20237,0.406965 6.58375,35.538842 -0.34024,19.32253 -0.87065,38.39438 -1.17867,42.38188 -0.30803,3.9875 -0.99462,7.25 -1.52576,7.25 -0.53114,0 -1.54864,-1.4625 -2.26112,-3.25 z m 2.57928,-58 c 0.34073,-21.75 0.34073,-21.75 -5.92054,-21.75 -4.92794,0 -6.68717,-0.4259 -8.26127,-1.999992 -1.39083,-1.39083 -2,-3.33333 -2,-6.37756 0,-2.83256 0.57728,-4.85665 1.63565,-5.73502 0.89961,-0.74661 3.74547,-1.58921 6.32412,-1.87245 4.68846,-0.51497 4.68846,-0.51497 -4.38565,-26.450899 -9.07412,-25.93593 -9.07412,-25.93593 -9.74466,-10.5 -0.3688,8.48976 -0.82387,25.22343 -1.01128,37.185929 -0.34073,21.749992 -0.34073,21.749992 5.92055,21.749992 4.92793,0 6.68717,0.4259 8.26127,2 1.39083,1.39083 2,3.33333 2,6.37756 0,2.83256 -0.57728,4.85665 -1.63566,5.73502 -0.89961,0.74661 -3.74546,1.58921 -6.32412,1.87245 -4.68846,0.51497 -4.68846,0.51497 4.38566,26.4509 9.07412,25.93593 9.07412,25.93593 9.74466,10.5 0.3688,-8.48976 0.82387,-25.22343 1.01127,-37.18593 z m 48.628842,74.56788 c 0.25866,-1.81689 -0.24346,-2.23532 -3,-2.5 -3.31066,-0.31788 -3.31066,-0.31788 -3.31066,-15.48972 0,-14.80378 0.0607,-15.23669 2.5,-17.84501 1.375,-1.47025 3.71515,-3.30542 5.20034,-4.07816 1.48519,-0.77275 4.49339,-1.40499 6.6849,-1.40499 2.19151,0 5.13865,0.43878 6.5492,0.97507 1.41055,0.5363 3.46959,2.4488 4.57564,4.25 1.8158,2.95704 1.98571,4.73094 1.75046,18.27493 -0.26054,15 -0.26054,15 -3.5712,15.31788 -2.75654,0.26468 -3.25866,0.68311 -3,2.5 0.28318,1.98909 0.97308,2.20854 7.79888,2.48074 4.11853,0.16424 8.50603,0.0432 9.75,-0.26905 1.36536,-0.34269 2.26178,-1.32768 2.26178,-2.48526 0,-1.43249 -0.82217,-1.99686 -3.25,-2.23095 -3.25,-0.31336 -3.25,-0.31336 -3.81374,-16.31336 -0.31006,-8.8 -1.04466,-17.125 -1.63244,-18.5 -0.58779,-1.375 -2.30685,-3.73638 -3.82013,-5.2475 -1.51328,-1.51113 -4.56042,-3.23462 -6.77141,-3.82998 -2.93915,-0.79142 -5.25575,-0.77188 -8.61614,0.0727 -2.52788,0.63535 -6.02862,2.24633 -7.77942,3.57998 -1.7508,1.33364 -3.65024,2.4248 -4.22097,2.4248 -0.65068,0 -1.14176,-4.9417 -1.31672,-13.25 -0.27903,-13.25 -0.27903,-13.25 -4.18371,-13.56959 -2.14757,-0.17577 -4.96007,-0.0547 -6.25,0.26906 -1.44992,0.3639 -2.34532,1.32762 -2.34532,2.52427 0,1.42198 0.93274,2.11062 3.51492,2.59504 3.51493,0.6594 3.51493,0.6594 3.25,29.79531 -0.26492,29.13591 -0.26492,29.13591 -3.51492,29.44927 -2.38487,0.22994 -3.25,0.8067 -3.25,2.16667 0,1.01931 0.5625,2.08863 1.25,2.37625 0.6875,0.28762 5.075,0.43762 9.75,0.33333 7.90608,-0.17636 8.52171,-0.34208 8.81066,-2.37173 z m 88.00421,-0.0322 c 0.3054,-2.14768 0.005,-2.2229 -10,-2.5 -10.31487,-0.28568 -10.31487,-0.28568 -10.81487,-21.78568 -0.5,-21.5 -0.5,-21.5 -8.49664,-21.7965 -4.39816,-0.16308 -9.04056,-0.0345 -10.31645,0.28572 -1.50039,0.37658 -2.20477,1.18776 -1.99416,2.29651 0.25916,1.36429 1.75284,1.81635 7.31644,2.21427 6.99081,0.5 6.99081,0.5 6.99081,19.5 0,19 0,19 -9.79549,19.28676 -7.78168,0.22781 -9.91889,0.60833 -10.39572,1.85093 -0.33012,0.86029 0.0279,1.96659 0.79549,2.45844 0.76765,0.49186 11.52072,0.78394 23.89572,0.64908 22.37875,-0.24389 22.5017,-0.25714 22.81487,-2.45951 z m 191.85527,4.15426 c -3.01126,-0.96454 -6.43539,-3.15258 -9.09382,-5.811 -2.5553,-2.55531 -4.92761,-6.2117 -5.92013,-9.1246 -0.91091,-2.67335 -1.65179,-7.81798 -1.64642,-11.4325 0.007,-4.78762 0.64892,-7.94444 2.36393,-11.62747 1.3001,-2.79198 4.29845,-6.71984 6.69655,-8.77253 2.38831,-2.0443 6.58122,-4.38178 9.31757,-5.19439 2.73635,-0.81261 7.73834,-1.47747 11.11554,-1.47747 3.3772,0 8.15823,0.68756 10.62451,1.5279 2.46628,0.84035 6.20449,2.94596 8.30714,4.67914 2.10264,1.73318 4.88554,5.43312 6.18422,8.2221 1.38312,2.97032 2.36528,6.95564 2.371,9.62086 0.005,2.5025 -0.53023,5.09 -1.19023,5.75 -0.8586,0.8586 -7.29076,1.2 -22.60841,1.2 -21.40841,0 -21.40841,0 -20.7548,2.60416 0.35948,1.43229 1.33461,3.64352 2.16696,4.91385 0.83236,1.27032 3.17452,3.12044 5.20481,4.11136 2.37717,1.16022 5.82762,1.77839 9.69144,1.73627 4.4525,-0.0485 8.01704,-0.92126 13.82051,-3.38376 6.28504,-2.66684 8.3466,-3.13454 10.5,-2.38207 2.01402,0.70376 2.75517,1.71026 2.98422,4.05261 0.23364,2.38924 -0.31068,3.6004 -2.33299,5.19115 -1.45075,1.14116 -5.18788,3.04925 -8.30473,4.24021 -3.93726,1.50443 -8.56672,2.27798 -15.16701,2.5343 -6.70647,0.26044 -10.92025,-0.086 -14.32986,-1.17812 z m 27.1435,-3.54912 c 3.47251,-1.15294 7.48212,-3.10134 8.91025,-4.32976 1.48935,-1.28109 2.28989,-2.72977 1.87734,-3.39729 -0.3956,-0.64007 -1.57988,-1.16377 -2.63173,-1.16377 -1.05186,0 -4.5128,1.18041 -7.69099,2.62312 -4.00041,1.81597 -8.14096,2.77734 -13.45604,3.12429 -6.51532,0.4253 -8.36398,0.16886 -12.21229,-1.69407 -2.53856,-1.2289 -5.41952,-3.62682 -6.54467,-5.44734 -1.10545,-1.78865 -2.13491,-4.79422 -2.28771,-6.67905 -0.2778,-3.42695 -0.2778,-3.42695 21.2222,-3.92695 11.825,-0.275 22.11098,-0.89402 22.85772,-1.37559 0.9623,-0.62059 1.17302,-2.03073 0.72351,-4.84177 -0.34882,-2.18139 -1.50256,-5.66827 -2.56387,-7.74861 -1.06131,-2.08035 -3.35372,-4.98071 -5.09423,-6.44526 -1.74052,-1.46455 -4.79775,-3.37212 -6.79385,-4.23905 -1.9961,-0.86693 -6.32928,-1.63777 -9.62928,-1.71298 -3.3,-0.0752 -8.11866,0.47897 -10.70814,1.2315 -2.58948,0.75253 -6.5425,2.93838 -8.78449,4.85745 -2.24199,1.91906 -4.90691,5.12835 -5.92203,7.13176 -1.01512,2.0034 -2.16072,5.53473 -2.54577,7.8474 -0.38513,2.31308 -0.18903,6.66674 0.43588,9.67688 0.62479,3.00961 2.45488,7.29271 4.06686,9.51799 1.61199,2.22527 4.84941,5.03717 7.19429,6.24864 2.34487,1.21148 5.8384,2.54804 7.7634,2.97014 1.925,0.4221 6.2,0.56521 9.5,0.31803 3.3,-0.24718 8.84114,-1.39274 12.31364,-2.54569 z M 414.91525,169.1055 c 0,-1.01866 1.01613,-3.38116 2.25807,-5.25 1.24194,-1.86883 4.26229,-4.41038 6.71189,-5.64788 3.04927,-1.54044 6.20031,-2.24307 9.99193,-2.22804 3.28236,0.013 7.26078,0.80396 9.76745,1.94186 2.44191,1.1085 5.08174,3.318 6.24626,5.22804 1.10931,1.81948 2.01861,4.32064 2.02066,5.55814 0.004,2.25 0.004,2.25 -18.49626,2.25 -17.34095,0 -18.5,-0.11604 -18.5,-1.85212 z m 33.47713,-3.1921 c -0.86582,-1.67432 -2.97717,-3.89741 -4.69188,-4.94018 -1.71471,-1.04278 -4.79219,-2.17887 -6.83883,-2.52465 -2.04665,-0.34578 -5.65717,-0.10738 -8.02339,0.52978 -2.40669,0.64805 -5.76077,2.61701 -7.61263,4.46887 -1.82072,1.82072 -3.3104,3.8054 -3.3104,4.4104 0,0.75424 5.03731,1.1 16.02568,1.1 16.02568,0 16.02568,0 14.45145,-3.04422 z m -95.25984,34.86151 c -0.66951,-0.66951 -1.21729,-2.22015 -1.21729,-3.44586 0,-1.22572 0.70714,-2.93572 1.57143,-3.8 1.17998,-1.17999 3.67099,-1.57143 10,-1.57143 8.42857,0 8.42857,0 8.42857,-27 0,-27 0,-27 -6.91821,-27 -3.80502,0 -7.63002,-0.27314 -8.5,-0.60699 -1.06572,-0.40895 -1.58179,-1.87089 -1.58179,-4.48095 0,-3.18487 0.40022,-3.97355 2.25,-4.43388 1.2375,-0.30796 7.2,-0.42903 13.25,-0.26905 11,0.29087 11,0.29087 11.26405,32.04087 0.26404,31.75 0.26404,31.75 9.62755,31.75 6.91368,0 9.67503,0.37536 10.55419,1.43468 0.65487,0.78907 1.04747,2.92657 0.87244,4.75 -0.31823,3.31532 -0.31823,3.31532 -24.35094,3.58261 -17.85259,0.19855 -24.34575,-0.0457 -25.25,-0.95 z m 46.67843,-1.73168 c 0.76764,-0.48607 1.12561,-1.58763 0.79549,-2.44792 -0.47683,-1.2426 -2.61404,-1.62312 -10.39572,-1.85093 -9.79549,-0.28676 -9.79549,-0.28676 -10.29549,-32.28676 -0.5,-32 -0.5,-32 -9.5,-32.29407 -4.95,-0.16174 -10.0125,-0.0407 -11.25,0.26905 -1.2375,0.30972 -2.25,1.21372 -2.25,2.00889 0,0.79517 0.87042,1.9116 1.93426,2.48095 1.06384,0.56935 4.89564,1.03518 8.5151,1.03518 6.58085,0 6.58085,0 6.31574,29.25 -0.2651,29.25 -0.2651,29.25 -9.5151,29.53753 -8.126,0.25258 -9.25,0.50574 -9.25,2.08333 0,0.98769 0.3,2.09581 0.66667,2.46247 0.36666,0.36667 10.15416,0.65978 21.75,0.65136 11.59583,-0.008 21.7114,-0.41301 22.47905,-0.89908 z M 200.11525,139.75762 c -0.66,-0.66 -1.2,-3.38958 -1.2,-6.06574 0,-2.67616 0.46583,-5.73616 1.03518,-6.8 0.77504,-1.44817 2.10696,-1.93426 5.3,-1.93426 2.34565,0 4.80482,0.54 5.46482,1.2 0.66,0.66 1.2,3.72 1.2,6.8 0,3.08 -0.54,6.14 -1.2,6.8 -0.66,0.66 -3.045,1.2 -5.3,1.2 -2.255,0 -4.64,-0.54 -5.3,-1.2 z m 8.6,-2 c 0.66,-0.66 1.2,-2.48958 1.2,-4.06574 0,-1.57616 -0.46583,-3.73616 -1.03518,-4.8 -0.56935,-1.06384 -1.88721,-1.93426 -2.92858,-1.93426 -1.04136,0 -2.60053,0.70714 -3.46481,1.57143 -0.86429,0.86428 -1.57143,3.02428 -1.57143,4.8 0,1.77571 0.54,3.76857 1.2,4.42857 0.66,0.66 2.145,1.2 3.3,1.2 1.155,0 2.64,-0.54 3.3,-1.2 z m -38.34958,-17.15558 c -1.67726,-0.75863 -4.26489,-2.82366 -5.75029,-4.58895 -1.48539,-1.76529 -2.97958,-4.32072 -3.32042,-5.67873 -0.34084,-1.35801 -0.41464,-4.94199 -0.164,-7.9644 0.27665,-3.336012 1.24402,-6.559542 2.46195,-8.203802 1.10343,-1.48969 3.49533,-3.72199 5.31533,-4.96066 1.82,-1.23867 5.15362,-2.75283 7.40805,-3.36481 2.33607,-0.63414 8.05348,-0.90944 13.29379,-0.64011 9.19483,0.47258 9.19483,0.47258 7.93801,-2.63518 -0.955,-2.361469 -2.29907,-3.442179 -5.59701,-4.500299 -3.96011,-1.27058 -5.0159,-1.19729 -12.05569,0.83689 -4.24351,1.22618 -8.74157,2.077819 -9.99568,1.89253 -1.25411,-0.18529 -2.72993,-1.05474 -3.27959,-1.93211 -0.54966,-0.87738 -0.69133,-2.82261 -0.31482,-4.32274 0.50264,-2.00265 1.937,-3.29125 5.39726,-4.84879 3.4298,-1.54382 7.29878,-2.22287 14.21269,-2.49449 8.40472,-0.33018 10.01882,-0.10605 14,1.94401 3.26956,1.68363 5.11522,3.53725 6.75,6.77912 2.04065,4.04673 2.25,5.884369 2.25,19.749999 0,15.288102 0,15.288102 3.47695,15.288102 2.5124,0 3.88999,0.63039 4.96589,2.27242 0.83273,1.2709 1.23095,3.259 0.90356,4.51094 -0.32196,1.23118 -1.56286,2.48385 -2.75756,2.7837 -1.1947,0.29985 -4.85343,0.40743 -8.13051,0.23906 -5.06741,-0.26035 -6.10617,-0.64311 -6.94707,-2.55987 -0.54381,-1.23957 -1.21881,-2.1166 -1.5,-1.94896 -0.28119,0.16764 -2.76126,1.38879 -5.51126,2.71367 -3.6043,1.73646 -7.09354,2.49315 -12.5,2.71082 -4.83971,0.19486 -8.5817,-0.18729 -10.54958,-1.07736 z m 19.33984,-2.9024 c 1.49036,-0.64813 4.37127,-2.24784 6.40202,-3.55491 2.03076,-1.30707 4.16826,-2.08232 4.75,-1.72278 0.58175,0.35954 1.05772,1.43715 1.05772,2.39469 0,0.95754 0.54,2.28098 1.2,2.94098 0.66,0.66 3.2475,1.19311 5.75,1.18469 2.5025,-0.008 5.17807,-0.41301 5.94572,-0.89908 0.76764,-0.48607 1.13026,-1.57551 0.80582,-2.42099 -0.35291,-0.91968 -2.11881,-1.66325 -4.39571,-1.85093 -3.80583,-0.31369 -3.80583,-0.31369 -4.30583,-16.813682 -0.4312,-14.22958 -0.78007,-16.976739 -2.53538,-19.964619 -1.11947,-1.90553 -3.59447,-4.38053 -5.5,-5.5 -2.78352,-1.63525 -5.13562,-2.0224 -11.96462,-1.96933 -6.40901,0.0498 -9.66849,0.58946 -13.25,2.19376 -3.47031,1.5545 -4.75,2.69015 -4.75,4.21534 0,1.14819 0.60467,2.31965 1.34371,2.60325 0.73903,0.28359 3.68069,-0.40553 6.53702,-1.53139 3.01165,-1.18708 7.50912,-2.04701 10.70595,-2.04701 3.03195,0 6.75268,0.64125 8.26829,1.425 1.51561,0.78376 3.29327,2.60493 3.95034,4.04706 0.65708,1.442119 1.19469,3.978439 1.19469,5.636259 0,3.01422 0,3.01422 -4.75,2.20295 -2.6125,-0.4462 -7.5712,-0.75659 -11.01932,-0.68975 -3.44813,0.0668 -8.27283,0.88667 -10.72157,1.82185 -2.44873,0.93518 -5.57804,3.03827 -6.95403,4.67354 -1.37599,1.63527 -3.00664,4.65822 -3.62366,6.717652 -0.81482,2.71964 -0.82519,4.84622 -0.0379,7.77007 0.59619,2.21409 2.17138,5.04717 3.50041,6.29573 1.32904,1.24857 4.14659,2.90936 6.26124,3.69066 2.38825,0.88239 5.65954,1.21387 8.63507,0.87498 2.63465,-0.30007 6.00965,-1.07587 7.5,-1.72399 z m -15.43326,-4.67195 c -1.17865,-0.50955 -2.86615,-1.9589 -3.75,-3.22077 -0.88385,-1.26187 -1.607,-3.73466 -1.607,-5.49508 0,-1.93449 0.96561,-4.348337 2.44077,-6.101452 1.34243,-1.59538 4.20714,-3.42991 6.36602,-4.07673 2.15889,-0.64682 7.02304,-1.13118 10.80923,-1.07635 3.78619,0.0548 8.00898,0.41025 9.38398,0.78985 2.11114,0.58281 2.54928,1.37472 2.81682,5.09119 0.17426,2.420562 -0.25924,5.477422 -0.96332,6.793012 -0.70409,1.31559 -3.24283,3.54219 -5.64166,4.948 -3.19708,1.87362 -6.1436,2.65196 -11.03667,2.9154 -3.67134,0.19766 -7.63952,-0.0575 -8.81817,-0.56707 z m 13.40719,-2.59268 c 2.87514,-0.85383 6.46875,-2.86418 8.1815,-4.57692 2.00341,-2.00342 3.05431,-4.0535 3.05431,-5.958337 0,-2.314925 -0.55786,-3.060025 -2.75,-3.673075 -1.5125,-0.42298 -5.675,-0.73255 -9.25,-0.68793 -4.01348,0.0501 -7.73966,0.72749 -9.74058,1.77081 -1.78232,0.92933 -3.98366,2.823752 -4.89185,4.209832 -1.3335,2.03518 -1.4314,3.00272 -0.50873,5.02776 0.62839,1.37918 2.60473,3.14313 4.39185,3.91989 1.78712,0.77676 3.95513,1.42991 4.81781,1.45144 0.86267,0.0215 3.87573,-0.64604 6.69569,-1.48347 z m 60.85511,10.48819 c -1.58438,-0.47439 -4.00488,-1.89821 -5.37888,-3.16405 -1.374,-1.26584 -3.11518,-3.74958 -3.8693,-5.51941 -0.94347,-2.21423 -1.37112,-7.59447 -1.37112,-17.249992 0,-14.03212 0,-14.03212 -5.96482,-14.03212 -4.87378,0 -6.15416,-0.353799 -7,-1.934259 -0.56935,-1.06384 -1.03518,-2.6067 -1.03518,-3.42857 0,-0.82187 0.70714,-2.20146 1.57143,-3.06574 1.04261,-1.04261 3.39827,-1.57143 7,-1.57143 5.42857,0 5.42857,0 5.42857,-8.3 0,-5.12222 0.45944,-8.75944 1.2,-9.5 0.66,-0.66 2.37,-1.2 3.8,-1.2 1.43,0 3.14,0.54 3.8,1.2 0.73987,0.73986 1.2,4.37114 1.2,9.47012 0,8.27012 0,8.27012 12.72747,8.55 12.72747,0.27988 12.72747,0.27988 13.7116,3.08265 0.66747,1.90093 0.64027,3.34888 -0.0845,4.5 -0.89744,1.4253 -3.11023,1.74219 -13.81124,1.97785 -12.74258,0.280619 -12.74258,0.280619 -12.39295,13.146069 0.29609,10.895022 0.63869,13.184682 2.23693,14.949822 1.03801,1.1464 3.33602,2.35615 5.10669,2.68833 2.21911,0.41631 5.51655,-0.2346 10.61271,-2.09492 4.06632,-1.48438 8.75243,-2.90953 10.41358,-3.16699 2.18264,-0.33829 3.53286,0.0983 4.86852,1.57418 1.27023,1.40358 1.64981,2.83295 1.21373,4.57042 -0.39397,1.56972 -2.05008,3.24913 -4.36852,4.42999 -2.0537,1.04602 -6.17818,2.62649 -9.1655,3.51216 -2.98733,0.88567 -8.16233,1.57163 -11.5,1.52436 -3.33768,-0.0473 -7.36481,-0.47409 -8.9492,-0.94847 z m 17.16218,-2.4761 c 3.45482,-0.81452 8.06732,-2.39202 10.25,-3.50554 2.18269,-1.11352 3.96852,-2.63534 3.96852,-3.38182 0,-0.74648 -0.5625,-1.82233 -1.25,-2.39079 -0.88795,-0.7342 -2.98786,-0.30728 -7.25,1.47394 -3.30943,1.38307 -8.93914,2.74248 -12.5543,3.03149 -5.96641,0.47697 -6.81852,0.29692 -9.5,-2.00742 -2.9457,-2.53139 -2.9457,-2.53139 -3.26775,-17.620362 -0.32204,-15.088969 -0.32204,-15.088969 11.16822,-15.088969 6.31964,0 12.20206,-0.27315 13.07204,-0.60699 0.86999,-0.33384 1.58179,-1.4107 1.58179,-2.39301 0,-0.98231 -0.7118,-2.05917 -1.58179,-2.39301 -0.86998,-0.33385 -6.71998,-0.60699 -13,-0.60699 -11.41821,0 -11.41821,0 -11.43352,-7.75 -0.008,-4.2625 -0.39985,-8.35678 -0.86983,-9.09839 -0.46998,-0.74162 -1.70059,-1.18656 -2.73469,-0.98875 -1.64184,0.31406 -1.91679,1.46736 -2.1691,9.09839 -0.28894,8.73875 -0.28894,8.73875 -5.5,8.75406 -2.86609,0.008 -5.81785,0.39985 -6.55946,0.86983 -0.74162,0.46998 -1.1871,1.70059 -0.98996,2.73469 0.29752,1.56064 1.41889,1.93076 6.59839,2.17789 6.23996,0.29771 6.23996,0.29771 6.24554,13.499999 0.003,7.261245 0.45238,14.810692 0.99848,16.776532 0.54609,1.96584 2.07592,4.5917 3.39961,5.83524 1.32369,1.24354 4.13687,2.87788 6.25152,3.63185 2.11464,0.75398 4.96981,1.38396 6.34481,1.39998 1.375,0.016 5.32667,-0.63732 8.78148,-1.45185 z m 49.83782,2.4761 c -1.58438,-0.47439 -4.00488,-1.89821 -5.37888,-3.16405 -1.374,-1.26584 -3.11518,-3.74958 -3.8693,-5.51941 -0.94347,-2.21423 -1.37112,-7.59447 -1.37112,-17.249992 0,-14.03212 0,-14.03212 -5.96482,-14.03212 -4.87378,0 -6.15416,-0.353799 -7,-1.934259 -0.56935,-1.06384 -1.03518,-2.6067 -1.03518,-3.42857 0,-0.82187 0.70714,-2.20146 1.57143,-3.06574 1.04261,-1.04261 3.39827,-1.57143 7,-1.57143 5.42857,0 5.42857,0 5.42857,-8.3 0,-5.12222 0.45944,-8.75944 1.2,-9.5 0.66,-0.66 2.37,-1.2 3.8,-1.2 1.43,0 3.14,0.54 3.8,1.2 0.73987,0.73986 1.2,4.37114 1.2,9.47012 0,8.27012 0,8.27012 12.72747,8.55 12.72747,0.27988 12.72747,0.27988 13.7116,3.08265 0.66747,1.90093 0.64027,3.34888 -0.0845,4.5 -0.89744,1.4253 -3.11023,1.74219 -13.81124,1.97785 -12.74258,0.280619 -12.74258,0.280619 -12.39295,13.146069 0.29609,10.895022 0.63869,13.184682 2.23693,14.949822 1.03801,1.1464 3.33602,2.35615 5.10669,2.68833 2.21911,0.41631 5.51655,-0.2346 10.61271,-2.09492 4.06632,-1.48438 8.75243,-2.90953 10.41358,-3.16699 2.18264,-0.33829 3.53286,0.0983 4.86852,1.57418 1.27023,1.40358 1.64981,2.83295 1.21373,4.57042 -0.39397,1.56972 -2.05008,3.24913 -4.36852,4.42999 -2.0537,1.04602 -6.17818,2.62649 -9.1655,3.51216 -2.98733,0.88567 -8.16233,1.57163 -11.5,1.52436 -3.33768,-0.0473 -7.36481,-0.47409 -8.9492,-0.94847 z m 17.16218,-2.4761 c 3.45482,-0.81452 8.06732,-2.39202 10.25,-3.50554 2.18269,-1.11352 3.96852,-2.63534 3.96852,-3.38182 0,-0.74648 -0.5625,-1.82233 -1.25,-2.39079 -0.88795,-0.7342 -2.98786,-0.30728 -7.25,1.47394 -3.30943,1.38307 -8.93914,2.74248 -12.5543,3.03149 -5.96641,0.47697 -6.81852,0.29692 -9.5,-2.00742 -2.9457,-2.53139 -2.9457,-2.53139 -3.26775,-17.620362 -0.32204,-15.088969 -0.32204,-15.088969 11.16822,-15.088969 6.31964,0 12.20206,-0.27315 13.07204,-0.60699 0.86999,-0.33384 1.58179,-1.4107 1.58179,-2.39301 0,-0.98231 -0.7118,-2.05917 -1.58179,-2.39301 -0.86998,-0.33385 -6.71998,-0.60699 -13,-0.60699 -11.41821,0 -11.41821,0 -11.43352,-7.75 -0.008,-4.2625 -0.39985,-8.35678 -0.86983,-9.09839 -0.46998,-0.74162 -1.70059,-1.18656 -2.73469,-0.98875 -1.64184,0.31406 -1.91679,1.46736 -2.1691,9.09839 -0.28894,8.73875 -0.28894,8.73875 -5.5,8.75406 -2.86609,0.008 -5.81785,0.39985 -6.55946,0.86983 -0.74162,0.46998 -1.1871,1.70059 -0.98996,2.73469 0.29752,1.56064 1.41889,1.93076 6.59839,2.17789 6.23996,0.29771 6.23996,0.29771 6.24554,13.499999 0.003,7.261245 0.45238,14.810692 0.99848,16.776532 0.54609,1.96584 2.07592,4.5917 3.39961,5.83524 1.32369,1.24354 4.13687,2.87788 6.25152,3.63185 2.11464,0.75398 4.96981,1.38396 6.34481,1.39998 1.375,0.016 5.32667,-0.63732 8.78148,-1.45185 z"
     id="path2926" />
  <path
     style="fill:#a0a0a0;stroke:none"
     d="m 19.988579,200.24715 c -6.612303,-0.24025 -7.613355,-0.57464 -8.843911,-2.95428 -0.882564,-1.70669 -0.934552,-2.44564 -0.282766,-4.01919 0.67625,-1.63261 1.38477,-2.0431 4.624075,-2.67903 2.104002,-0.41305 4.175693,-0.86403 4.603757,-1.00218 0.560773,-0.18098 0.697982,-3.43446 0.490928,-11.64076 -0.701284,-27.79433 -1.645318,-59.59449 -2.040773,-68.74421 l -0.430238,-9.954511 -1.769114,-0.335694 c -0.973013,-0.184637 -3.113049,-0.539414 -4.755635,-0.788393 -3.429148,-0.51979 -6.1549322,-2.830668 -6.1549322,-5.218056 0,-0.878325 0.8794672,-2.439543 1.9543716,-3.469364 l 1.9543715,-1.872407 16.9029501,0.222144 c 18.082485,0.237644 18.571004,0.330691 19.885236,3.787378 0.792962,2.085653 -0.828735,5.280367 -2.950768,5.812962 -0.866528,0.217485 -3.313856,0.59974 -5.438506,0.849451 -4.902303,0.576169 -5.897396,1.335661 -6.614224,5.04823 -1.05064,5.44146 1.365625,78.0483 2.675227,80.38842 1.081145,1.9319 2.570291,-1.75365 15.670707,-38.78415 3.030383,-8.56588 6.258152,-17.07271 7.172818,-18.90407 0.914668,-1.83136 1.524886,-3.68975 1.356041,-4.12975 -0.179843,-0.46866 -2.612061,-0.99224 -5.8725,-1.26415 -3.06103,-0.25527 -6.129711,-0.76609 -6.819289,-1.13514 -2.053084,-1.09878 -3.24517,-4.00835 -2.508306,-6.12212 0.701131,-2.01127 2.18035,-2.73997 8.339133,-4.10807 L 55.2001,108.3277 56.002568,85.981929 c 0.441357,-12.290175 0.89843,-32.538947 1.015717,-44.997272 l 0.213249,-22.651499 -3.875668,-0.781496 c -2.131617,-0.429823 -4.340801,-1.167524 -4.909298,-1.639334 -1.4596,-1.211361 -1.282475,-4.255889 0.369805,-6.356423 l 1.403437,-1.7841804 10.277308,0.00998 c 6.772357,0.00658 10.854639,0.295243 11.97017,0.8464308 2.493958,1.2322736 4.916646,6.7581183 14.765383,33.6779633 9.641909,26.354511 11.874096,31.825797 12.984349,31.825797 1.08207,0 2.65719,-3.987275 11.50241,-29.117219 10.93392,-31.064114 11.91027,-33.483926 14.33274,-35.522293 1.99488,-1.6785848 2.29804,-1.7206614 12.39736,-1.7206614 9.44798,0 10.50835,0.1226168 12.13664,1.4034365 1.28449,1.0103749 1.78418,2.0302199 1.78418,3.6413829 0,2.855359 -1.14491,3.76761 -5.94293,4.735235 l -3.87566,0.781613 0.20653,21.974238 c 0.11358,12.085831 0.57065,32.327634 1.01571,44.981784 l 0.80919,23.007546 1.69286,0.48233 c 0.93108,0.26528 3.47136,0.83321 5.64507,1.26206 3.47457,0.68549 4.06022,1.03662 4.84602,2.90547 0.75018,1.78418 0.73964,2.42388 -0.0656,3.98111 -1.6645,3.21879 -2.53302,3.34997 -20.67861,3.12315 -16.88357,-0.21103 -16.9597,-0.21859 -18.24775,-1.81051 -1.7343,-2.14344 -1.631,-4.5583 0.27658,-6.46588 1.18203,-1.18203 2.68576,-1.68953 6.08456,-2.05351 7.97888,-0.85447 7.5997,0.27796 7.47107,-22.312263 -0.11536,-20.263082 -1.34317,-57.394446 -2.02414,-61.214467 -0.21865,-1.226603 -0.74205,-2.118761 -1.1631,-1.982575 -1.2369,0.40007 -2.6403,3.875576 -10.19815,25.255703 -7.30471,20.664043 -11.48272,31.833623 -13.00691,34.772938 -0.46896,0.904368 -0.72042,1.858275 -0.5588,2.119795 0.16163,0.261513 2.94388,0.696227 6.18278,0.966021 5.22072,0.434883 6.10544,0.707075 7.79722,2.398846 3.8146,3.8146 1.84384,7.040754 -5.20337,8.517972 -2.59387,0.54372 -4.97026,1.242709 -5.28086,1.553308 -0.6331,0.633112 -2.33297,47.729802 -2.64196,73.198552 l -0.20126,16.59005 3.90187,0.7704 c 5.81287,1.14771 7.21681,2.89079 5.54012,6.87844 -1.37241,3.26401 -4.46362,3.87195 -15.659908,3.07984 -8.925931,-0.63149 -9.324194,-0.72412 -10.629133,-2.47195 C 86.622882,195.3788 85.273657,191.9838 75.196167,164.46196 66.167275,139.80391 63.796388,134.0592 62.648691,134.0592 c -1.157133,0 -2.847009,4.2264 -11.557039,28.90427 -10.131582,28.70551 -12.177475,33.92363 -13.918296,35.49905 -1.469449,1.32983 -8.786949,2.08975 -17.184777,1.78463 z M 93.763521,182.9829 c 1.3033,-4.29149 2.881419,-72.2759 1.811558,-78.04092 -0.963543,-5.192123 -2.105656,-6.123386 -8.252626,-6.729099 -5.225152,-0.514873 -8.083719,-2.301499 -8.083719,-5.052392 0,-2.91563 2.716874,-4.755892 8.194859,-5.550745 2.831236,-0.41081 5.545821,-0.992985 6.032411,-1.293712 0.691195,-0.427183 0.356008,-1.782495 -1.532372,-6.196171 C 90.604241,77.012695 86.321593,65.633733 82.416628,54.833276 71.948541,25.88031 70.673532,22.882659 69.377938,24.178253 c -0.967406,0.967405 -1.63137,15.775214 -2.072898,46.230023 -0.492121,33.944514 -0.317347,36.797834 2.338613,38.179494 0.621926,0.32353 3.230274,0.80709 5.796334,1.07457 5.196198,0.54164 7.861615,2.34908 7.861615,5.33101 0,3.17413 -1.903772,4.41548 -8.317733,5.42357 -3.271252,0.51415 -6.081116,1.0682 -6.244145,1.23123 -0.163029,0.16303 0.874236,3.02221 2.305032,6.35373 1.430793,3.33153 6.297283,16.50855 10.81442,29.28228 9.9278,28.07421 10.685911,29.71079 11.904345,25.69874 l 0,0 z"
     id="path2949" />
  <path
     style="fill:#000000;stroke:none"
     d="m 123.3558,198.84275 c -1.53181,-1.03527 -0.57249,-2.94562 1.88473,-3.75322 1.72233,-0.56607 2.46628,-1.29166 2.86663,-2.79589 0.72593,-2.72751 1.04909,-53.08922 0.35295,-55.00308 -0.35004,-0.96235 -1.51474,-1.79806 -3.21643,-2.3079 -4.71695,-1.41323 -2.94311,-4.65812 2.53567,-4.63851 4.38469,0.0157 5.56554,0.60317 5.91597,2.94323 0.17511,1.16936 0.57173,6.90819 0.88138,12.75297 0.30964,5.84477 0.77869,10.84256 1.04232,11.10618 0.26362,0.26363 2.23605,-0.58325 4.38317,-1.88197 5.66588,-3.42707 8.14781,-4.26042 12.70674,-4.26646 5.04279,-0.007 9.50455,2.36702 12.42033,6.60776 2.26588,3.29552 2.54708,5.14837 3.46596,22.83775 0.33856,6.51751 0.81718,12.37499 1.06361,13.01661 0.2476,0.64468 1.50327,1.36455 2.80673,1.60908 2.78531,0.52253 3.66893,2.11767 1.89259,3.41656 -1.50799,1.10268 -13.50109,1.27896 -16.23726,0.23868 -2.56786,-0.9763 -1.94189,-2.85418 1.19902,-3.59699 1.9364,-0.45795 2.65012,-1.02616 3.00745,-2.39432 0.25768,-0.98664 0.48431,-7.88818 0.50362,-15.33678 0.032,-12.36183 -0.083,-13.7434 -1.31917,-15.84211 -1.89384,-3.21524 -4.45308,-4.92792 -8.25323,-5.5232 -6.6999,-1.04952 -13.78826,1.81419 -16.70618,6.74932 -1.11057,1.87832 -1.2622,3.70769 -1.28356,15.48551 -0.0133,7.34556 0.1843,14.01256 0.43916,14.81556 0.30524,0.96172 1.30328,1.65862 2.92436,2.042 2.67719,0.63314 3.23118,1.35667 2.24024,2.92582 -0.49833,0.78911 -2.42191,1.05973 -8.62259,1.21309 -4.38964,0.10857 -8.39203,-0.0803 -8.89421,-0.41969 l 0,0 z"
     id="path2951" />
  <path
     style="fill:#000000"
     d="m 14.99175,199.44839 c -2.423722,-0.62137 -3.219326,-1.43652 -3.899828,-3.99563 -0.57775,-2.17269 0.788663,-3.34019 5.572645,-4.7614 l 4.001157,-1.18865 -0.0066,-10.116 c -0.0037,-5.56379 -0.09071,-12.09664 -0.193405,-14.51743 -0.102696,-2.42079 -0.484367,-15.98061 -0.848155,-30.13294 C 18.856535,105.13177 18.486697,99.184929 17.387292,98.875095 16.955852,98.753507 14.822591,98.288552 12.646711,97.84186 6.2185373,96.5222 4.3623193,93.294367 7.905089,89.596514 l 1.7979745,-1.876686 14.2842105,0.347443 c 18.41503,0.447917 19.786843,0.623183 21.14899,2.702084 0.904934,1.381105 0.946591,1.983669 0.252911,3.658362 -0.91656,2.212767 -1.49572,2.489245 -7.138226,3.407588 -5.453638,0.887602 -6.903199,2.016361 -7.473525,5.819565 -0.515147,3.43526 0.08764,33.5394 1.090134,54.44296 1.326696,27.6637 1.417032,28.28796 3.60935,24.94206 1.431859,-2.18529 5.862496,-14.20346 5.470248,-14.83813 -0.172757,-0.27953 -0.06302,-0.61043 0.243869,-0.73535 0.306884,-0.12492 1.711619,-3.42663 3.121632,-7.33714 1.410014,-3.91051 5.166938,-14.05841 8.348721,-22.5509 3.389359,-9.04652 5.533503,-15.68651 5.177608,-16.03401 -0.334099,-0.32623 -3.19753,-0.93892 -6.363181,-1.36155 -5.951645,-0.79456 -7.572046,-1.67137 -8.435596,-4.56453 -0.718232,-2.4063 1.993571,-4.52353 7.532398,-5.88089 l 4.78874,-1.17354 0.47035,-8.920954 c 0.258693,-4.906523 0.452898,-11.05396 0.431567,-13.660967 -0.02133,-2.607006 0.110491,-9.310738 0.292939,-14.897182 0.182447,-5.586443 0.526709,-19.797724 0.765026,-31.580624 l 0.433303,-21.423454 -3.529933,-0.757036 c -1.941463,-0.416369 -4.115964,-1.070669 -4.832225,-1.454001 -1.636251,-0.875695 -1.685978,-3.50507 -0.117289,-6.2017689 l 1.185003,-2.037113 10.131759,0.4805209 c 5.572467,0.2642865 10.75737,0.7183781 11.522007,1.0090923 2.082963,0.7919414 5.520346,8.3471287 13.250033,29.1228697 3.810503,10.241812 7.192596,18.723682 7.515757,18.848598 0.32316,0.124917 0.434049,0.475518 0.246413,0.779113 -0.363363,0.587942 4.781521,13.988097 5.918291,15.414524 1.900732,2.385052 2.435842,1.204551 14.042542,-30.979367 5.30531,-14.710967 10.22406,-27.885438 10.93056,-29.276602 2.17679,-4.2863195 3.23056,-4.6229513 14.47144,-4.6229513 11.61738,0 13.20432,0.5330768 13.20432,4.4355473 0,2.70349 -0.89585,3.358045 -6.13324,4.481264 l -3.52865,0.75676 0.43357,21.085157 c 0.84287,40.989566 1.67181,68.941644 2.05591,69.325744 0.16253,0.16254 1.61428,0.58694 3.22611,0.94311 6.7345,1.48817 7.79121,1.93946 8.5764,3.66278 0.99984,2.19439 -0.52805,5.52095 -2.79736,6.09051 -0.84059,0.21097 -8.935,0.29156 -17.98757,0.17909 -15.38184,-0.19111 -16.52208,-0.29053 -17.41939,-1.51892 -2.68939,-3.68169 -0.15114,-6.70712 6.57957,-7.8424 2.57384,-0.43414 5.10529,-1.21492 5.62545,-1.73508 1.9563,-1.9563 2.06352,-9.873844 0.72364,-53.436834 -0.19474,-6.331302 -0.34293,-12.120888 -0.32931,-12.865748 0.0779,-4.259577 -0.89931,-16.50414 -1.37906,-17.280389 -0.46528,-0.75283 -0.75403,-0.759192 -1.62564,-0.03582 -0.58293,0.483788 -0.90897,1.123778 -0.72454,1.422199 0.18444,0.298421 0.0459,0.644789 -0.30795,0.769706 -0.88699,0.31316 -10.32089,26.230046 -9.83441,27.017179 0.21561,0.348867 0.10884,0.634302 -0.23728,0.634302 -0.34612,0 -1.4592,2.361542 -2.47352,5.247871 -1.01431,2.886329 -3.68506,10.056752 -5.93501,15.934276 -2.24994,5.877521 -3.97296,10.804249 -3.82892,10.948291 0.14404,0.144036 2.85146,0.605544 6.01649,1.02557 6.7187,0.891616 9.04286,2.222768 9.3539,5.357385 0.19443,1.959325 -0.0486,2.268252 -2.71154,3.446179 -1.60881,0.711652 -4.33358,1.670624 -6.05504,2.131042 l -3.12993,0.837133 -0.43411,5.468339 c -0.23876,3.00759 -0.60297,11.25793 -0.80937,18.33409 -0.20639,7.07617 -0.64759,21.85485 -0.98044,32.84152 -0.33285,10.98667 -0.61566,23.07724 -0.62847,26.86793 l -0.0233,6.89218 3.80452,0.85141 c 2.09249,0.46828 4.41958,1.34946 5.1713,1.95817 1.23597,1.00082 1.28675,1.34928 0.53055,3.64059 -0.55456,1.68033 -1.44112,2.77264 -2.63201,3.24281 -1.87993,0.74222 -19.080487,0.3557 -21.249978,-0.47751 -2.139743,-0.82178 -3.863381,-4.7247 -13.79309,-31.2323 -10.970265,-29.2854 -12.959968,-34.08905 -14.119889,-34.08905 -1.239727,0 -2.512122,3.1401 -13.000264,32.08295 -5.390935,14.87671 -10.404535,28.23022 -11.141332,29.67446 -0.765723,1.50094 -2.125534,2.93183 -3.174099,3.34002 -2.379024,0.92611 -17.406942,1.39104 -20.374188,0.63033 l 0,0 z M 93.809289,183.81 c 1.314832,-2.12744 3.091023,-71.90014 2.0142,-79.12233 -0.634037,-4.25247 -2.531931,-5.83419 -8.168294,-6.807538 -5.928428,-1.023788 -7.739316,-2.150137 -7.739316,-4.813746 0,-2.664991 2.534078,-4.208759 8.871516,-5.404549 2.643884,-0.498859 4.944767,-1.265868 5.113065,-1.704454 C 94.193575,85.19355 77.425585,39.618549 76.594573,38.920378 76.37293,38.734163 76.191584,38.27709 76.191584,37.904661 c 0,-1.497005 -3.905815,-11.172887 -4.510103,-11.172887 -0.356625,0 -0.487828,-0.259824 -0.291564,-0.577386 0.196264,-0.317563 -0.05036,-1.134266 -0.548045,-1.814897 -2.612475,-3.572772 -3.146073,3.948827 -3.594943,50.674287 -0.197259,20.533835 -0.05381,29.663972 0.492045,31.317942 0.423761,1.28401 0.866607,2.33455 0.984103,2.33455 0.117495,0 2.607763,0.48535 5.533932,1.07854 6.897713,1.39831 8.367449,2.33849 8.367449,5.35256 0,2.90162 -1.643417,3.87131 -8.664012,5.11219 -2.716848,0.4802 -5.063592,1.07351 -5.21499,1.31847 -0.256625,0.41524 13.796451,39.38516 20.085845,55.69914 2.588636,6.71461 3.858614,8.39402 4.977988,6.58283 z"
     id="path2953" />
  <path
     style="fill:#000000"
     d="m 172.34612,117.59117 c -7.82502,-3.70504 -10.60481,-11.81215 -6.72192,-19.604099 2.09029,-4.194656 5.92891,-7.22216 11.12336,-8.772943 3.4844,-1.040252 8.21223,-1.18126 21.33006,-0.63617 l 2.70858,0.11255 0.18874,-3.047151 c 0.59326,-9.577765 -9.23769,-13.331996 -23.83203,-9.100947 -6.53573,1.894773 -8.05342,1.787593 -7.72215,-0.545337 0.15593,-1.09806 1.3573,-2.096859 4.27965,-3.558036 3.91551,-1.957755 4.39615,-2.031434 13.25191,-2.031434 8.89728,0 9.27873,0.05931 12.01354,1.867929 1.55347,1.027361 3.63327,3.090087 4.62179,4.583834 1.89955,2.87041 2.08806,4.434231 3.36701,27.931354 0.44468,8.1699 0.81216,8.88237 4.92012,9.53926 5.70542,0.91233 3.82724,4.04203 -2.42567,4.04203 -4.83688,0 -6.6679,-0.91567 -7.20544,-3.60337 -0.65973,-3.29866 -2.09526,-3.23948 -8.83246,0.36413 -5.87937,3.14476 -6.453,3.30942 -12.26221,3.51998 -4.90037,0.17762 -6.62494,-0.0303 -8.80288,-1.06158 l 0,0 z m 20.3228,-5.85293 c 4.97066,-2.43089 7.67349,-5.50109 8.19548,-9.30941 0.66495,-4.851339 -0.14633,-7.913214 -2.31535,-8.738357 -2.34236,-0.891087 -17.35886,-0.863657 -20.38826,0.03724 -8.72521,2.594752 -12.09614,11.207744 -6.76349,17.281294 2.4109,2.74587 3.75585,3.05118 11.78314,2.67486 4.68642,-0.21971 6.8784,-0.66918 9.48848,-1.94563 l 0,0 z"
     id="path2955" />
  <path
     style="fill:#000000"
     d="m 185.38116,198.94336 c -1.93556,-0.22761 -2.5393,-0.60358 -2.5393,-1.58133 0,-1.46718 1.15851,-1.7358 10.32652,-2.39436 9.38368,-0.67405 8.93119,0.24483 9.17757,-18.63699 0.26621,-20.4016 0.55827,-19.65259 -8.1386,-20.87215 -2.50108,-0.35072 -4.86262,-0.83249 -5.24787,-1.07059 -2.43664,-1.50592 1.85239,-3.06155 8.44099,-3.06155 6.45081,0 8.83909,0.87768 9.80724,3.60412 0.42022,1.18338 1.04505,9.40459 1.38851,18.26934 0.6679,17.2382 1.27424,20.23942 4.25459,21.05882 0.81305,0.22353 4.22071,0.57793 7.57258,0.78754 3.35187,0.20961 6.77991,0.51981 7.61788,0.68932 1.81122,0.36639 2.00992,1.95097 0.33857,2.70004 -1.2648,0.56687 -38.73353,1.00935 -42.99868,0.50779 l 0,0 z"
     id="path2957" />
  <path
     style="fill:#000000"
     d="m 252.13013,118.52584 c -4.46356,-1.39567 -7.53647,-3.63806 -9.44252,-6.89049 -1.68797,-2.88031 -1.7826,-3.59093 -2.23962,-16.819705 -0.32645,-9.449108 -0.74536,-14.135466 -1.32612,-14.835234 -0.47521,-0.572593 -2.5421,-1.206458 -4.69512,-1.439879 -6.12146,-0.663659 -6.89334,-0.928624 -6.89334,-2.366276 0,-1.844907 2.01288,-2.719502 6.25893,-2.719502 5.59757,0 6.03067,-0.590122 6.69676,-9.12473 0.6112,-7.831266 1.28519,-9.557064 3.30936,-8.473764 1.01805,0.544845 1.30739,1.91692 1.70815,8.100292 0.34954,5.393117 0.76723,7.680653 1.51588,8.301983 0.69893,0.580067 4.60521,0.967226 12.06936,1.196219 11.63126,0.356835 13.51936,0.864469 12.03258,3.235074 -0.81538,1.300082 -5.80855,1.953652 -16.02816,2.097975 -5.4306,0.07669 -6.10873,0.237042 -7.69011,1.818421 l -1.73431,1.734314 0.297,12.65501 c 0.16335,6.960252 0.63072,13.454402 1.0386,14.431422 1.16575,2.79247 4.80508,4.65917 9.04596,4.63991 4.21752,-0.0192 7.42761,-0.66529 15.69305,-3.1587 5.4467,-1.64309 6.04632,-1.70429 7.03282,-0.7178 0.9865,0.9865 0.93003,1.216 -0.66233,2.69174 -2.73084,2.53086 -16.25625,6.69885 -21.33037,6.57317 -1.00585,-0.0249 -3.10125,-0.44316 -4.65645,-0.92945 l 0,0 z"
     id="path2959" />
  <path
     style="fill:#000000"
     d="m 318.15965,118.20214 c -4.60279,-1.8 -7.17921,-3.86297 -8.80913,-7.0536 -1.27317,-2.49225 -1.49266,-4.41123 -1.8843,-16.474108 -0.30632,-9.434718 -0.70787,-13.97208 -1.29962,-14.685092 -0.48334,-0.582391 -2.53162,-1.213448 -4.70253,-1.448808 -6.12146,-0.663659 -6.89334,-0.928624 -6.89334,-2.366276 0,-1.844907 2.01288,-2.719502 6.25893,-2.719502 5.60762,0 6.05836,-0.6103 6.65826,-9.015244 0.56082,-7.857314 0.78483,-8.590517 2.62465,-8.590517 1.66523,0 1.86104,0.700719 2.42718,8.686165 0.34482,4.863813 0.78807,7.11588 1.5201,7.723417 0.69888,0.580017 4.60546,0.967195 12.06932,1.196179 11.63126,0.356835 13.51936,0.864469 12.03257,3.235074 -0.81537,1.300082 -5.80854,1.953652 -16.02815,2.097975 -5.3613,0.07571 -6.1217,0.250013 -7.61788,1.74619 -1.62614,1.62614 -1.66208,1.896314 -1.66208,12.493846 0,14.173351 0.63703,17.175991 4.13514,19.490931 2.45287,1.62323 3.05345,1.72781 7.89346,1.3745 2.88122,-0.21032 7.98103,-1.21405 11.33289,-2.23051 7.71076,-2.33831 9.41496,-2.4364 9.68329,-0.55733 0.1275,0.89291 -0.37725,1.80034 -1.35429,2.4347 -3.88404,2.52178 -16.24376,5.99967 -21.06973,5.92879 -1.18605,-0.0174 -3.57768,-0.58747 -5.31474,-1.26678 z"
     id="path2961" />
  <path
     style="fill:#000000"
     d="m 234.54642,220.04795 c -0.53914,-1.40498 0.82013,-2.86666 3.13952,-3.37609 1.36684,-0.30021 2.14668,-1.03691 2.66179,-2.51458 0.81167,-2.32833 0.92547,-52.4887 0.12565,-55.3823 -0.30541,-1.10495 -1.2228,-1.93996 -2.64158,-2.40437 -3.08598,-1.01013 -3.957,-2.01727 -2.87362,-3.32266 0.63641,-0.76683 2.18242,-1.04442 5.81683,-1.04442 5.31361,0 5.01894,-0.20761 6.00698,4.23215 0.22793,1.02419 0.74759,1.86215 1.15481,1.86215 0.40722,0 3.52475,-1.39995 6.92783,-3.11101 6.1513,-3.09283 6.22106,-3.10935 11.94317,-2.82764 4.76369,0.23453 6.45598,0.64379 9.81859,2.37452 4.87845,2.51093 8.33029,5.99009 10.92626,11.01272 1.7363,3.35936 1.92563,4.38782 1.93221,10.49575 0.006,5.87927 -0.21576,7.21655 -1.68558,10.14974 -2.16537,4.32123 -6.69975,8.89378 -10.47604,10.56421 -7.8253,3.46151 -15.07266,3.01976 -23.63817,-1.44082 -3.93955,-2.05157 -5.53409,-2.58004 -6.0943,-2.01982 -0.49292,0.49291 -0.75874,4.32457 -0.75874,10.93663 0,12.08855 0.007,12.10016 7.1548,12.10016 5.79573,0 8.7735,0.60651 9.26489,1.88707 0.91105,2.37415 -1.64257,2.85294 -15.21607,2.85294 -11.06537,0 -13.15711,-0.15884 -13.48923,-1.02433 z m 39.37632,-27.65363 c 3.76221,-1.75197 7.41954,-5.50252 8.9644,-9.19289 1.15784,-2.76585 1.27186,-10.86233 0.20859,-14.81103 -0.41364,-1.53613 -1.9256,-3.80649 -3.74976,-5.63065 -9.16102,-9.16102 -25.23309,-7.22334 -31.00708,3.73828 -1.92095,3.64683 -2.04556,12.80739 -0.23858,17.53891 1.40716,3.6846 5.38939,7.40078 9.4884,8.8545 4.53758,1.60927 12.31934,1.37243 16.33403,-0.49712 z"
     id="path2963" />
  <path
     style="fill:#000000"
     d="m 291.42657,220.04795 c -0.54621,-1.42339 0.82889,-2.86859 3.23155,-3.3963 1.2938,-0.28417 2.25515,-1.04949 2.66179,-2.11904 0.86123,-2.2652 0.83418,-53.79536 -0.0294,-56.06682 -0.44355,-1.1666 -1.34311,-1.88706 -2.69339,-2.15712 -2.7237,-0.54474 -3.86006,-1.93374 -2.71287,-3.31602 0.66895,-0.80604 2.02642,-0.9979 5.98845,-0.84643 l 5.12341,0.19588 0.56718,2.87787 c 0.31196,1.58282 0.91197,2.87786 1.33338,2.87786 0.4214,0 3.60583,-1.40928 7.07651,-3.13173 6.25565,-3.1046 6.35866,-3.12906 11.89042,-2.82328 9.32264,0.51534 16.72697,5.19953 20.36081,12.88083 2.76204,5.83847 3.41993,9.36923 2.60639,13.98779 -2.22966,12.65797 -10.71032,19.93845 -23.14282,19.86768 -5.47233,-0.0311 -9.07151,-1.05425 -13.4644,-3.82736 -1.53166,-0.96688 -3.47094,-1.83065 -4.30953,-1.91948 -1.46913,-0.15561 -1.54637,0.11365 -2.11957,7.38881 -0.65548,8.31945 -0.20433,13.22238 1.36066,14.78737 0.72166,0.72166 2.55831,1.04373 6.22331,1.09131 6.57982,0.0854 8.52943,0.62023 8.79005,2.41128 0.29555,2.03112 -1.16451,2.24147 -15.63111,2.25199 -10.73337,0.008 -12.77905,-0.15058 -13.11079,-1.01509 l 0,0 z m 40.49723,-28.28062 c 7.23123,-3.73948 10.26818,-10.66962 8.76527,-20.00183 -0.82907,-5.14808 -2.58518,-8.16768 -6.37097,-10.95484 -8.94985,-6.58901 -22.12787,-4.56595 -28.06663,4.30872 -2.11078,3.15427 -2.1995,3.55537 -2.171,9.81431 0.0426,9.35036 1.43593,12.62262 6.83616,16.05473 3.41628,2.17121 6.2231,2.86596 11.86572,2.93701 4.2229,0.0532 5.40511,-0.22592 9.14145,-2.1581 l 0,0 z"
     id="path2965" />
  <path
     style="fill:#000000"
     d="m 356.36017,198.98168 c -0.46553,-0.20241 -0.84643,-0.94626 -0.84643,-1.65299 0,-1.49412 0.94023,-1.75121 8.32873,-2.27736 6.27743,-0.44703 7.49467,-0.99884 8.6657,-3.9284 1.19469,-2.98878 1.7506,-48.4133 0.63819,-52.14786 -0.83698,-2.80985 -1.05923,-2.90352 -8.42051,-3.54878 -5.3178,-0.46614 -7.35676,-1.30695 -7.04868,-2.90667 0.29595,-1.53676 2.63537,-2.04972 9.34803,-2.04972 7.73418,0 8.88526,0.39119 10.43486,3.54622 1.15284,2.34723 1.3828,5.43619 2.1161,28.42403 0.84557,26.5077 1.17314,29.17024 3.86321,31.40107 0.61159,0.50718 3.90991,1.04469 7.90348,1.28798 7.24898,0.44163 9.92284,1.41967 8.32161,3.04387 -0.68322,0.69301 -5.51718,0.92376 -21.66863,1.03432 -11.43407,0.0783 -21.17012,-0.0233 -21.63566,-0.22571 z"
     id="path2967" />
  <path
     style="fill:#000000"
     d="m 423.40553,198.48774 c -5.10111,-1.95193 -9.73714,-5.61079 -11.99847,-9.46945 -3.93736,-6.71859 -4.72342,-16.50523 -1.84783,-23.00597 1.95094,-4.41041 7.68026,-10.25433 12.10585,-12.34797 6.6985,-3.16889 17.50688,-3.38084 23.99104,-0.47046 7.04413,3.16173 12.48943,10.58555 13.26315,18.08225 0.30809,2.98502 0.17479,3.61417 -0.84895,4.00702 -0.66794,0.25631 -9.77098,0.78805 -20.22899,1.18164 -10.45801,0.3936 -19.92871,0.93461 -21.046,1.20224 -6.10744,1.46297 0.4048,13.69176 8.81788,16.55839 5.79485,1.9745 15.07134,0.91208 25.29997,-2.89755 7.10074,-2.64466 10.21963,-2.0659 6.8775,1.27623 -3.68472,3.68472 -13.9355,6.85342 -23.38959,7.23015 -5.90668,0.23536 -7.3109,0.0634 -10.99556,-1.34652 z m 28.68431,-28.51195 c 0.52768,-1.37513 -0.99619,-5.71639 -2.87623,-8.1939 -4.29079,-5.65438 -16.33965,-7.67213 -24.77279,-4.14854 -3.67917,1.53726 -7.76616,5.60437 -9.0746,9.03047 -0.99892,2.61564 -1.02941,3.1515 -0.20885,3.67088 0.52845,0.33448 8.96915,0.61281 18.75712,0.61851 14.97735,0.009 17.85634,-0.1461 18.17535,-0.97742 z"
     id="path2969" />
  <path
     style="fill:#000000"
     d="m 202.79316,137.51076 c -2.90469,-2.12396 -0.7768,-9.88444 2.71026,-9.88444 2.21737,0 3.74708,2.3915 3.74708,5.85803 0,4.43214 -3.18581,6.41861 -6.45734,4.02641 z"
     id="path2971" />
</svg>
