<svg xmlns:dc="http://purl.org/dc/elements/1.1/" xmlns:cc="http://creativecommons.org/ns#" xmlns:rdf="http://www.w3.org/1999/02/22-rdf-syntax-ns#" xmlns:svg="http://www.w3.org/2000/svg" xmlns="http://www.w3.org/2000/svg" xmlns:sodipodi="http://sodipodi.sourceforge.net/DTD/sodipodi-0.dtd" xmlns:inkscape="http://www.inkscape.org/namespaces/inkscape" id="svg2912" version="1.1" inkscape:version="0.47 r22583" width="465" height="226" viewBox="0 0 465 226">
  <metadata id="metadata2918">
    <rdf:RDF>
      <cc:Work rdf:about="">
        <dc:format>image/svg+xml</dc:format>
        <dc:type rdf:resource="http://purl.org/dc/dcmitype/StillImage"/>
        <dc:title/>
      </cc:Work>
    </rdf:RDF>
  </metadata>
  <defs id="defs2916">
    <inkscape:perspective inkscape:vp_x="0 : 0.5 : 1" inkscape:vp_y="0 : 1000 : 0" inkscape:vp_z="1 : 0.5 : 1" inkscape:persp3d-origin="0.5 : 0.33333333 : 1" id="perspective2920"/>
  </defs>
  <g>

  <path d="m 232 222 c -0.6 -1.1 -1 -2.6 -1 -3.5 0 -0.8 0.7 -2.2 1.6 -3.1 0.9 -0.9 2.7 -1.6 4 -1.6 2.4 0 2.4 0 2.4 -27.5 0 -27.5 0 -27.5 -2.4 -27.5 -1.3 0 -3.1 -0.7 -4 -1.6 -0.9 -0.9 -1.6 -2.6 -1.6 -3.9 0 -1.3 0.6 -2.8 1.4 -3.5 0.9 -0.7 4.2 -1.1 8.8 -0.9 6.7 0.3 7.4 0.5 7.7 2.5 0.2 1.2 0.4 2.2 0.5 2.2 0.1 -0 2.4 -1.1 5.1 -2.5 3.7 -1.9 6.5 -2.5 11.1 -2.5 3.4 0 8.2 0.7 10.8 1.6 2.6 0.9 6.4 3.3 8.5 5.3 2.1 2 4.7 5.5 5.7 7.7 1.1 2.2 2.1 6.9 2.3 10.6 0.3 4.5 -0.1 8.3 -1.3 11.7 -1 3 -3.3 6.6 -5.6 9 -2.2 2.2 -6 4.7 -8.6 5.6 -2.6 0.9 -7.2 1.6 -10.3 1.6 -3.1 0 -7.6 -0.7 -10 -1.5 -2.4 -0.8 -5.1 -2.3 -6.1 -3.2 -1.7 -1.6 -1.8 -1.2 -1.8 7.5 0 9.1 0 9.1 8.2 9.4 8 0.3 8.3 0.4 9.2 3.1 0.7 1.9 0.6 3.3 -0.1 4.5 -0.9 1.5 -3.3 1.7 -17.2 2 -15.1 0.3 -16.2 0.2 -17.1 -1.7 z m 31.8 -2.5 c 0.2 -1 -0.2 -2.3 -1 -2.7 -0.7 -0.5 -4.6 -0.9 -8.6 -0.9 -7.2 -0 -7.2 -0 -7.2 -11.5 0 -8.8 0.3 -11.5 1.3 -11.5 0.7 0 2.8 1.1 4.6 2.5 1.8 1.4 5.8 3 8.7 3.6 3.9 0.8 6.8 0.8 10.4 0 2.8 -0.6 6.6 -2.2 8.6 -3.5 1.9 -1.3 4.6 -4 5.9 -5.9 1.3 -1.9 2.9 -5.6 3.4 -8.2 0.6 -2.6 0.8 -6.6 0.4 -9 -0.3 -2.3 -1.9 -6.5 -3.6 -9.3 -2.1 -3.7 -4.3 -5.9 -8 -8 -2.8 -1.6 -7.1 -3.2 -9.4 -3.6 -2.4 -0.4 -6.3 -0.1 -8.6 0.5 -2.4 0.6 -6 2.2 -8 3.6 -2.1 1.3 -4.2 2.4 -4.7 2.4 -0.5 0 -1.1 -1.5 -1.3 -3.2 -0.3 -3.2 -0.3 -3.2 -6.3 -3.2 -5.4 0 -6 0.2 -6.3 2.2 -0.3 1.8 0.3 2.3 3.2 2.9 3.6 0.7 3.6 0.7 3.6 29.9 0 29.3 0 29.3 -3.5 29.9 -2.5 0.5 -3.5 1.2 -3.5 2.4 0 1 0.3 2.1 0.7 2.5 0.4 0.4 7 0.6 14.7 0.4 12.8 -0.3 14.1 -0.4 14.4 -2.2 z m -7.4 -27.5 c -2.3 -1 -5.2 -3.4 -6.5 -5.2 -1.8 -2.5 -2.5 -5 -2.8 -10 -0.3 -4.7 0.1 -7.5 1.2 -9.7 0.9 -1.7 2.8 -4.2 4.2 -5.6 1.4 -1.3 4.6 -3 7 -3.7 2.5 -0.7 6.2 -0.9 8.8 -0.5 2.5 0.4 5.9 1.7 7.7 2.9 1.8 1.2 4.2 3.4 5.3 5 1.4 1.9 2.2 4.7 2.4 9 0.3 5.1 -0.1 7 -2 10.7 -1.6 3 -3.7 5.2 -6.7 6.8 -2.9 1.5 -6 2.3 -9.4 2.3 -2.8 -0 -6.9 -0.9 -9.2 -1.9 z m 18.1 -3.1 c 1.6 -1 3.7 -3.1 4.6 -4.6 0.9 -1.6 1.9 -4.3 2.3 -6.1 0.4 -1.8 0.2 -4.9 -0.5 -7 -0.7 -2.1 -2.2 -4.8 -3.3 -6.1 -1.2 -1.3 -3.3 -3 -4.8 -3.8 -1.5 -0.8 -4.8 -1.4 -7.4 -1.4 -2.9 0 -6.1 0.8 -8.5 2.2 -2.5 1.4 -4.6 3.7 -5.9 6.3 -1.1 2.3 -2 5.5 -2 7.1 0 1.6 0.8 4.7 1.8 6.9 1 2.2 2.6 4.6 3.5 5.4 0.9 0.8 3.3 2 5.4 2.7 2.2 0.8 5.4 1.1 7.8 0.8 2.2 -0.3 5.3 -1.4 7 -2.4 z m 14.5 33.1 c -0.6 -1.1 -1 -2.6 -1 -3.5 0 -0.8 0.7 -2.2 1.6 -3.1 0.9 -0.9 2.7 -1.6 4 -1.6 2.4 0 2.4 0 2.4 -27.5 0 -27.5 0 -27.5 -2.4 -27.5 -1.3 0 -3.1 -0.7 -4 -1.6 -0.9 -0.9 -1.6 -2.6 -1.6 -3.9 0 -1.3 0.6 -2.8 1.4 -3.5 0.9 -0.7 4.2 -1.1 8.8 -0.9 6.7 0.3 7.4 0.5 7.7 2.5 0.2 1.2 0.4 2.2 0.5 2.2 0.1 -0 2.4 -1.1 5.1 -2.5 3.7 -1.9 6.5 -2.5 11.1 -2.5 3.4 0 8.2 0.7 10.8 1.6 2.6 0.9 6.4 3.3 8.5 5.3 2.1 2 4.7 5.5 5.7 7.7 1.1 2.2 2.1 6.9 2.3 10.6 0.3 4.5 -0.1 8.3 -1.3 11.7 -1 3 -3.3 6.6 -5.6 9 -2.2 2.2 -6 4.7 -8.6 5.6 -2.6 0.9 -7.2 1.6 -10.3 1.6 -3.1 0 -7.6 -0.7 -10 -1.5 -2.4 -0.8 -5.1 -2.3 -6.1 -3.2 -1.7 -1.6 -1.8 -1.2 -1.8 7.5 0 9.1 0 9.1 8.2 9.4 8 0.3 8.3 0.4 9.2 3.1 0.7 1.9 0.6 3.3 -0.1 4.5 -0.9 1.5 -3.3 1.7 -17.2 2 -15.1 0.3 -16.2 0.2 -17.1 -1.7 z m 31.8 -2.5 c 0.2 -1 -0.2 -2.3 -1 -2.7 -0.7 -0.5 -4.6 -0.9 -8.6 -0.9 -7.2 -0 -7.2 -0 -7.2 -11.5 0 -8.8 0.3 -11.5 1.3 -11.5 0.7 0 2.8 1.1 4.6 2.5 1.8 1.4 5.8 3 8.7 3.6 3.9 0.8 6.8 0.8 10.4 0 2.8 -0.6 6.6 -2.2 8.6 -3.5 1.9 -1.3 4.6 -4 5.9 -5.9 1.3 -1.9 2.9 -5.6 3.4 -8.2 0.6 -2.6 0.8 -6.6 0.4 -9 -0.3 -2.3 -1.9 -6.5 -3.6 -9.3 -2.1 -3.7 -4.3 -5.9 -8 -8 -2.8 -1.6 -7.1 -3.2 -9.4 -3.6 -2.4 -0.4 -6.3 -0.1 -8.6 0.5 -2.4 0.6 -6 2.2 -8 3.6 -2.1 1.3 -4.2 2.4 -4.7 2.4 -0.5 0 -1.1 -1.5 -1.3 -3.2 -0.3 -3.2 -0.3 -3.2 -6.3 -3.2 -5.4 0 -6 0.2 -6.3 2.2 -0.3 1.8 0.3 2.3 3.2 2.9 3.6 0.7 3.6 0.7 3.6 29.9 0 29.3 0 29.3 -3.5 29.9 -2.5 0.5 -3.5 1.2 -3.5 2.4 0 1 0.3 2.1 0.7 2.5 0.4 0.4 7 0.6 14.7 0.4 12.8 -0.3 14.1 -0.4 14.4 -2.2 z m -7.4 -27.5 c -2.3 -1 -5.2 -3.4 -6.5 -5.2 -1.8 -2.5 -2.5 -5 -2.8 -10 -0.3 -4.7 0.1 -7.5 1.2 -9.7 0.9 -1.7 2.8 -4.2 4.2 -5.6 1.4 -1.3 4.6 -3 7 -3.7 2.5 -0.7 6.2 -0.9 8.8 -0.5 2.5 0.4 5.9 1.7 7.7 2.9 1.8 1.2 4.2 3.4 5.3 5 1.4 1.9 2.2 4.7 2.4 9 0.3 5.1 -0.1 7 -2 10.7 -1.6 3 -3.7 5.2 -6.7 6.8 -2.9 1.5 -6 2.3 -9.4 2.3 -2.8 -0 -6.9 -0.9 -9.2 -1.9 z m 18.1 -3.1 c 1.6 -1 3.7 -3.1 4.6 -4.6 0.9 -1.6 1.9 -4.3 2.3 -6.1 0.4 -1.8 0.2 -4.9 -0.5 -7 -0.7 -2.1 -2.2 -4.8 -3.3 -6.1 -1.2 -1.3 -3.3 -3 -4.8 -3.8 -1.5 -0.8 -4.8 -1.4 -7.4 -1.4 -2.9 0 -6.1 0.8 -8.5 2.2 -2.5 1.4 -4.6 3.7 -5.9 6.3 -1.1 2.3 -2 5.5 -2 7.1 0 1.6 0.8 4.7 1.8 6.9 1 2.2 2.6 4.6 3.5 5.4 0.9 0.8 3.3 2 5.4 2.7 2.2 0.8 5.4 1.1 7.8 0.8 2.2 -0.3 5.3 -1.4 7 -2.4 z M 9.3 200.9 c -1.2 -1.3 -1.9 -3.6 -1.9 -6.1 0 -2.8 0.6 -4.4 1.9 -5.4 1.1 -0.8 2.8 -1.4 4 -1.4 1.1 -0 2.7 -0.4 3.5 -0.9 1.2 -0.8 1.2 -6.2 0.2 -37.2 -0.6 -20 -1.2 -39.2 -1.2 -42.6 0 -6.2 0 -6.2 -4.3 -6.2 -2.4 0 -5.3 -0.7 -6.5 -1.6 -1.7 -1.2 -2.2 -2.5 -2.2 -6 0 -3.1 0.6 -5 2 -6.4 1.9 -1.9 3.3 -2 20.8 -2 15.4 0 19.2 0.3 21 1.6 1.8 1.2 2.2 2.5 2.2 6.4 0 3.9 -0.4 5.2 -2.2 6.4 -1.4 1 -4.4 1.6 -8.1 1.6 -5.9 0 -5.9 0 -5.3 3.8 0.3 2.1 0.8 19.2 1.2 38.1 0.7 34.3 0.7 34.3 8.1 12.5 4.1 -12 8.3 -24.2 9.4 -27.1 2 -5.2 2 -5.2 -3 -5.2 -3.7 0 -5.5 -0.5 -7 -2 -1.4 -1.4 -2 -3.3 -2 -6.4 0 -3.5 0.5 -4.8 2.2 -6 1.2 -0.9 4.1 -1.6 6.3 -1.6 4.1 0 4.1 0 4.8 -22.7 0.4 -12.5 1 -31.8 1.3 -42.9 0.6 -20.2 0.6 -20.2 -2.3 -20.8 -1.6 -0.3 -3.9 -1 -5.1 -1.5 -1.5 -0.6 -2.4 -2.1 -2.9 -4.5 -0.5 -2.8 -0.2 -4.2 1.3 -6.3 1.9 -2.6 2.2 -2.7 15 -2.9 12.4 -0.3 13.2 -0.2 15.7 2 2 1.8 4.8 8.6 12.6 30.8 5.5 15.7 10.2 29.2 10.6 30 0.3 0.8 5.2 -12 10.8 -28.4 8.3 -24.1 10.8 -30.4 13 -32.3 2.5 -2.2 3.5 -2.3 15.5 -2.3 11.7 0 13 0.2 14.7 2.1 1.2 1.3 1.9 3.6 1.9 6.1 0 2.8 -0.6 4.4 -1.9 5.4 -1.1 0.8 -2.8 1.4 -4 1.4 -1.1 0 -2.7 0.4 -3.5 0.9 -1.2 0.8 -1.2 6.2 -0.2 37.2 0.6 20 1.2 39.2 1.2 42.6 -0 6.2 -0 6.2 4.3 6.2 2.4 0 5.3 0.7 6.5 1.6 1.7 1.2 2.2 2.5 2.2 6 0 3.1 -0.6 5 -2 6.4 -1.9 1.9 -3.3 2 -20.8 2 -15.4 0 -19.2 -0.3 -21 -1.6 -1.8 -1.2 -2.2 -2.5 -2.2 -6.4 0 -3.9 0.4 -5.2 2.2 -6.4 1.4 -1 4.4 -1.6 8.1 -1.6 5.9 0 5.9 0 5.3 -3.8 -0.3 -2.1 -0.8 -19.2 -1.2 -38.1 -0.7 -34.3 -0.7 -34.3 -8.1 -12.5 -4.1 12 -8.3 24.2 -9.4 27.1 -2 5.2 -2 5.2 3 5.2 3.7 0 5.5 0.5 7 2 1.4 1.4 2 3.3 2 6.4 0 3.5 -0.5 4.8 -2.2 6 -1.2 0.9 -4.1 1.6 -6.3 1.6 -4.1 0 -4.1 0 -4.8 22.8 -0.4 12.5 -1 31.8 -1.3 42.9 -0.6 20.2 -0.6 20.2 2.3 20.8 1.6 0.4 3.7 0.9 4.7 1.2 1 0.3 2.3 1.8 2.8 3.4 0.9 2.5 1.2 2.7 2.5 1.4 0.8 -0.8 2.6 -1.5 3.9 -1.5 2.4 0 2.4 0 2.4 -27 0 -27 0 -27 -2.4 -27 -1.3 0 -3.1 -0.7 -4 -1.6 -0.9 -0.9 -1.6 -2.4 -1.6 -3.3 0 -1 0.6 -2.5 1.3 -3.5 1.1 -1.4 2.6 -1.7 8.8 -1.4 7.5 0.3 7.5 0.3 7.8 12.5 0.3 12.2 0.3 12.2 4.9 9.8 3.3 -1.8 6.2 -2.5 10.2 -2.5 3.5 0 7 0.7 9.6 2 2.2 1.1 5.2 3.6 6.6 5.7 2.4 3.5 2.5 4.5 2.8 20 0.3 16.3 0.3 16.3 2.8 16.3 1.3 0 3.2 0.9 4.1 2 1.7 1.9 1.7 1.9 3 0 1.2 -1.7 2.6 -2 10.8 -2 9.4 0 9.4 0 9.4 -16.5 0 -16.5 0 -16.5 -6.5 -16.5 -5.7 0 -6.7 -0.3 -8 -2.4 -1.2 -1.8 -1.3 -3 -0.5 -5 1 -2.7 1 -2.7 12.8 -2.4 11.8 0.3 11.8 0.3 12 21.5 0.3 21.2 0.3 21.2 9.7 21.2 7.2 0 9.8 0.4 11 1.6 0.9 0.9 1.6 2.6 1.6 3.8 0 1.2 -0.5 2.8 -1.2 3.4 -0.9 0.9 -8 1.2 -26 1.2 -22.5 0 -24.8 -0.2 -25.8 -1.8 -1 -1.7 -1.1 -1.7 -2.1 0 -0.9 1.5 -2.6 1.8 -11.8 1.8 -7 0 -11.2 -0.4 -12 -1.2 -0.7 -0.7 -1.2 -2.2 -1.2 -3.4 0 -1.2 0.7 -2.9 1.6 -3.8 0.9 -0.9 2.7 -1.6 4 -1.6 2.4 0 2.4 0 2.4 -11.8 -0 -6.5 -0.6 -13.3 -1.2 -15.2 -0.9 -2.5 -2.3 -4 -5 -5.4 -3.2 -1.6 -4.4 -1.7 -7.5 -0.8 -2 0.6 -5 2.5 -6.7 4.2 -2.9 3 -3 3.2 -3.3 16 -0.3 12.9 -0.3 12.9 2.2 12.9 1.4 0 3.2 0.7 4.1 1.6 0.9 0.9 1.6 2.6 1.6 3.8 0 1.2 -0.5 2.8 -1.2 3.4 -0.8 0.8 -4.9 1.2 -12 1.2 -9.8 0 -10.9 -0.2 -11.9 -2.1 -1.1 -2 -1.1 -2 -3.1 0.5 -2 2.5 -2.3 2.6 -14.9 2.6 -11.9 0 -13.1 -0.2 -15.5 -2.2 -2 -1.7 -4.9 -8.8 -12.6 -30.8 -5.5 -15.7 -10.2 -29.2 -10.6 -30 -0.3 -0.8 -5.2 12 -10.8 28.4 -8.3 24.1 -10.8 30.4 -13 32.2 -2.5 2.2 -3.5 2.3 -15.5 2.3 -11.7 0 -13 -0.2 -14.7 -2.1 z m 29 -3 c 1.4 -1.6 6.4 -14.8 12.6 -33.3 7.8 -23.2 10.7 -30.6 11.8 -30.4 1 0.2 5.2 10.8 12.4 31.3 6.1 17.5 11.7 31.9 12.8 33 1.7 1.7 3.6 2 13 2.3 9.4 0.3 11.3 0.1 13 -1.4 1.1 -1 1.9 -3 1.9 -4.6 0 -1.8 -0.7 -3.2 -1.9 -3.8 -1.1 -0.6 -3.3 -1 -4.9 -1 -1.7 0 -3.3 -0.4 -3.6 -0.9 -0.3 -0.5 0.1 -20.4 0.9 -44.2 0.8 -23.9 1.5 -43.9 1.5 -44.5 0 -0.6 2.3 -1.3 5.2 -1.6 3.4 -0.3 5.6 -1.1 6.5 -2.3 0.7 -1 1.3 -2.6 1.3 -3.6 0 -1 -0.9 -2.7 -2 -3.8 -1.6 -1.6 -3.3 -2 -8 -2 -3.9 0 -6 -0.4 -6 -1.2 0 -0.6 0.6 -1.9 1.4 -2.8 0.7 -0.9 5.8 -14.5 11.1 -30.3 5.7 -16.8 10.3 -28.8 11 -28.8 0.9 0 1.4 4.9 1.9 18.8 0.3 10.3 0.9 29.4 1.3 42.4 0.6 23.6 0.6 23.6 -6.2 24.2 -5 0.4 -7.2 1 -8.1 2.3 -0.7 1 -1.3 2.5 -1.3 3.4 0 0.9 0.6 2.5 1.4 3.6 1.3 1.8 3 2 18.9 2.3 16.6 0.3 17.6 0.2 19.6 -1.8 1.1 -1.1 2.1 -2.9 2.1 -3.9 0 -1 -0.6 -2.6 -1.3 -3.6 -0.9 -1.2 -3.1 -2 -6.5 -2.3 -2.8 -0.3 -5.2 -0.8 -5.2 -1.1 -0 -0.3 -0.7 -20.4 -1.5 -44.5 -0.8 -24.1 -1.2 -44.3 -0.9 -44.8 0.3 -0.5 1.9 -0.9 3.6 -0.9 1.7 0 3.9 -0.5 4.9 -1 1.2 -0.7 1.9 -2.1 1.9 -4 0 -2 -0.8 -3.4 -2.5 -4.6 -2 -1.3 -4.6 -1.5 -13.1 -1.3 -10 0.3 -10.8 0.5 -12.9 3 -1.4 1.6 -6.4 14.8 -12.6 33.3 -7.8 23.2 -10.7 30.6 -11.8 30.4 -1 -0.2 -5.2 -10.8 -12.4 -31.3 -6.1 -17.5 -11.7 -31.9 -12.8 -33 -1.7 -1.7 -3.6 -2 -13 -2.3 -9.4 -0.3 -11.3 -0.1 -13 1.4 -1.1 1 -1.9 3 -1.9 4.6 0 1.8 0.7 3.2 1.9 3.8 1.1 0.6 3.3 1 4.9 1 1.7 0 3.3 0.4 3.6 0.9 0.3 0.5 -0.1 20.4 -0.9 44.2 -0.8 23.9 -1.5 43.9 -1.5 44.5 -0 0.6 -2.3 1.3 -5.2 1.6 -3.4 0.3 -5.6 1.1 -6.5 2.3 -0.7 1 -1.3 2.6 -1.3 3.6 0 1 0.9 2.7 2 3.8 1.6 1.6 3.3 2 8 2 3.9 0 6 0.4 6 1.2 0 0.6 -0.6 1.9 -1.4 2.8 -0.7 0.9 -5.8 14.5 -11.1 30.3 -5.7 16.8 -10.3 28.8 -11 28.8 -0.9 0 -1.4 -4.9 -1.9 -18.8 -0.3 -10.3 -0.9 -29.4 -1.3 -42.4 -0.6 -23.6 -0.6 -23.6 6.2 -24.2 5 -0.4 7.2 -1 8.1 -2.3 0.7 -1 1.3 -2.5 1.3 -3.4 0 -0.9 -0.6 -2.5 -1.4 -3.6 -1.3 -1.8 -3 -2 -18.9 -2.3 -16.6 -0.3 -17.6 -0.2 -19.6 1.8 -1.1 1.1 -2.1 2.9 -2.1 3.9 0 1 0.6 2.6 1.3 3.6 0.9 1.2 3.1 2 6.5 2.3 2.8 0.3 5.2 0.8 5.2 1.1 0 0.3 0.7 20.4 1.5 44.5 0.8 24.1 1.2 44.3 0.9 44.8 -0.3 0.5 -1.9 0.9 -3.6 0.9 -1.7 0 -3.9 0.5 -4.9 1 -1.2 0.7 -1.9 2.1 -1.9 3.9 0 1.9 0.8 3.5 2.3 4.5 1.8 1.3 4.4 1.6 13.1 1.3 10.3 -0.3 11 -0.4 13.1 -2.9 z m 52.2 -17.1 c -0.7 -1.8 -5.3 -14.7 -10.1 -28.8 -4.8 -14 -9.4 -26.2 -10.2 -27.1 -0.7 -0.9 -1.3 -2.1 -1.3 -2.6 0 -0.6 2.8 -1.3 6.1 -1.5 4.5 -0.3 6.5 -0.9 7.5 -2.3 0.8 -1 1.4 -2.6 1.4 -3.5 0 -0.9 -0.6 -2.5 -1.4 -3.5 -1.1 -1.5 -3 -2 -8.6 -2.3 -7.2 -0.4 -7.2 -0.4 -6.6 -35.5 0.3 -19.3 0.9 -38.4 1.2 -42.4 0.4 -4.9 0.9 -7.2 1.7 -6.9 0.6 0.2 5.7 13.3 11.2 29 5.5 15.8 10.6 29.2 11.2 29.9 0.7 0.7 1.2 1.7 1.2 2.4 0 0.7 -2.3 1.3 -6.1 1.6 -4.5 0.3 -6.5 0.9 -7.5 2.3 -0.8 1 -1.4 2.6 -1.4 3.5 0 0.9 0.6 2.5 1.4 3.5 1.1 1.5 3 2 8.6 2.3 7.2 0.4 7.2 0.4 6.6 35.5 -0.3 19.3 -0.9 38.4 -1.2 42.4 -0.3 4 -1 7.2 -1.5 7.2 -0.5 0 -1.5 -1.5 -2.3 -3.2 z m 2.6 -58 c 0.3 -21.8 0.3 -21.8 -5.9 -21.8 -4.9 0 -6.7 -0.4 -8.3 -2 -1.4 -1.4 -2 -3.3 -2 -6.4 0 -2.8 0.6 -4.9 1.6 -5.7 0.9 -0.7 3.7 -1.6 6.3 -1.9 4.7 -0.5 4.7 -0.5 -4.4 -26.5 -9.1 -25.9 -9.1 -25.9 -9.7 -10.5 -0.4 8.5 -0.8 25.2 -1 37.2 -0.3 21.7 -0.3 21.7 5.9 21.7 4.9 0 6.7 0.4 8.3 2 1.4 1.4 2 3.3 2 6.4 0 2.8 -0.6 4.9 -1.6 5.7 -0.9 0.7 -3.7 1.6 -6.3 1.9 -4.7 0.5 -4.7 0.5 4.4 26.5 9.1 25.9 9.1 25.9 9.7 10.5 0.4 -8.5 0.8 -25.2 1 -37.2 z m 48.6 74.6 c 0.3 -1.8 -0.2 -2.2 -3 -2.5 -3.3 -0.3 -3.3 -0.3 -3.3 -15.5 0 -14.8 0.1 -15.2 2.5 -17.8 1.4 -1.5 3.7 -3.3 5.2 -4.1 1.5 -0.8 4.5 -1.4 6.7 -1.4 2.2 0 5.1 0.4 6.5 1 1.4 0.5 3.5 2.4 4.6 4.2 1.8 3 2 4.7 1.8 18.3 -0.3 15 -0.3 15 -3.6 15.3 -2.8 0.3 -3.3 0.7 -3 2.5 0.3 2 1 2.2 7.8 2.5 4.1 0.2 8.5 0 9.8 -0.3 1.4 -0.3 2.3 -1.3 2.3 -2.5 0 -1.4 -0.8 -2 -3.2 -2.2 -3.2 -0.3 -3.2 -0.3 -3.8 -16.3 -0.3 -8.8 -1 -17.1 -1.6 -18.5 -0.6 -1.4 -2.3 -3.7 -3.8 -5.2 -1.5 -1.5 -4.6 -3.2 -6.8 -3.8 -2.9 -0.8 -5.3 -0.8 -8.6 0.1 -2.5 0.6 -6 2.2 -7.8 3.6 -1.8 1.3 -3.7 2.4 -4.2 2.4 -0.7 0 -1.1 -4.9 -1.3 -13.2 -0.3 -13.2 -0.3 -13.2 -4.2 -13.6 -2.1 -0.2 -5 -0.1 -6.2 0.3 -1.4 0.4 -2.3 1.3 -2.3 2.5 0 1.4 0.9 2.1 3.5 2.6 3.5 0.7 3.5 0.7 3.2 29.8 -0.3 29.1 -0.3 29.1 -3.5 29.4 -2.4 0.2 -3.2 0.8 -3.2 2.2 0 1 0.6 2.1 1.2 2.4 0.7 0.3 5.1 0.4 9.8 0.3 7.9 -0.2 8.5 -0.3 8.8 -2.4 z m 88 -0 c 0.3 -2.1 0 -2.2 -10 -2.5 -10.3 -0.3 -10.3 -0.3 -10.8 -21.8 -0.5 -21.5 -0.5 -21.5 -8.5 -21.8 -4.4 -0.2 -9 -0 -10.3 0.3 -1.5 0.4 -2.2 1.2 -2 2.3 0.3 1.4 1.8 1.8 7.3 2.2 7 0.5 7 0.5 7 19.5 0 19 0 19 -9.8 19.3 -7.8 0.2 -9.9 0.6 -10.4 1.9 -0.3 0.9 0 2 0.8 2.5 0.8 0.5 11.5 0.8 23.9 0.6 22.4 -0.2 22.5 -0.3 22.8 -2.5 z m 191.9 4.2 c -3 -1 -6.4 -3.2 -9.1 -5.8 -2.6 -2.6 -4.9 -6.2 -5.9 -9.1 -0.9 -2.7 -1.7 -7.8 -1.6 -11.4 0 -4.8 0.6 -7.9 2.4 -11.6 1.3 -2.8 4.3 -6.7 6.7 -8.8 2.4 -2 6.6 -4.4 9.3 -5.2 2.7 -0.8 7.7 -1.5 11.1 -1.5 3.4 0 8.2 0.7 10.6 1.5 2.5 0.8 6.2 2.9 8.3 4.7 2.1 1.7 4.9 5.4 6.2 8.2 1.4 3 2.4 7 2.4 9.6 0 2.5 -0.5 5.1 -1.2 5.8 -0.9 0.9 -7.3 1.2 -22.6 1.2 -21.4 0 -21.4 0 -20.8 2.6 0.4 1.4 1.3 3.6 2.2 4.9 0.8 1.3 3.2 3.1 5.2 4.1 2.4 1.2 5.8 1.8 9.7 1.7 4.5 -0 8 -0.9 13.8 -3.4 6.3 -2.7 8.3 -3.1 10.5 -2.4 2 0.7 2.8 1.7 3 4.1 0.2 2.4 -0.3 3.6 -2.3 5.2 -1.5 1.1 -5.2 3 -8.3 4.2 -3.9 1.5 -8.6 2.3 -15.2 2.5 -6.7 0.3 -10.9 -0.1 -14.3 -1.2 z m 27.1 -3.5 c 3.5 -1.2 7.5 -3.1 8.9 -4.3 1.5 -1.3 2.3 -2.7 1.9 -3.4 -0.4 -0.6 -1.6 -1.2 -2.6 -1.2 -1.1 0 -4.5 1.2 -7.7 2.6 -4 1.8 -8.1 2.8 -13.5 3.1 -6.5 0.4 -8.4 0.2 -12.2 -1.7 -2.5 -1.2 -5.4 -3.6 -6.5 -5.4 -1.1 -1.8 -2.1 -4.8 -2.3 -6.7 -0.3 -3.4 -0.3 -3.4 21.2 -3.9 11.8 -0.3 22.1 -0.9 22.9 -1.4 1 -0.6 1.2 -2 0.7 -4.8 -0.3 -2.2 -1.5 -5.7 -2.6 -7.7 -1.1 -2.1 -3.4 -5 -5.1 -6.4 -1.7 -1.5 -4.8 -3.4 -6.8 -4.2 -2 -0.9 -6.3 -1.6 -9.6 -1.7 -3.3 -0.1 -8.1 0.5 -10.7 1.2 -2.6 0.8 -6.5 2.9 -8.8 4.9 -2.2 1.9 -4.9 5.1 -5.9 7.1 -1 2 -2.2 5.5 -2.5 7.8 -0.4 2.3 -0.2 6.7 0.4 9.7 0.6 3 2.5 7.3 4.1 9.5 1.6 2.2 4.8 5 7.2 6.2 2.3 1.2 5.8 2.5 7.8 3 1.9 0.4 6.2 0.6 9.5 0.3 3.3 -0.2 8.8 -1.4 12.3 -2.5 z M 414.9 169.1 c 0 -1 1 -3.4 2.3 -5.2 1.2 -1.9 4.3 -4.4 6.7 -5.6 3 -1.5 6.2 -2.2 10 -2.2 3.3 0 7.3 0.8 9.8 1.9 2.4 1.1 5.1 3.3 6.2 5.2 1.1 1.8 2 4.3 2 5.6 0 2.2 0 2.2 -18.5 2.2 -17.3 0 -18.5 -0.1 -18.5 -1.9 z m 33.5 -3.2 c -0.9 -1.7 -3 -3.9 -4.7 -4.9 -1.7 -1 -4.8 -2.2 -6.8 -2.5 -2 -0.3 -5.7 -0.1 -8 0.5 -2.4 0.6 -5.8 2.6 -7.6 4.5 -1.8 1.8 -3.3 3.8 -3.3 4.4 0 0.8 5 1.1 16 1.1 16 0 16 0 14.5 -3 z m -95.3 34.9 c -0.7 -0.7 -1.2 -2.2 -1.2 -3.4 0 -1.2 0.7 -2.9 1.6 -3.8 1.2 -1.2 3.7 -1.6 10 -1.6 8.4 0 8.4 0 8.4 -27 0 -27 0 -27 -6.9 -27 -3.8 0 -7.6 -0.3 -8.5 -0.6 -1.1 -0.4 -1.6 -1.9 -1.6 -4.5 0 -3.2 0.4 -4 2.2 -4.4 1.2 -0.3 7.2 -0.4 13.2 -0.3 11 0.3 11 0.3 11.3 32 0.3 31.8 0.3 31.8 9.6 31.8 6.9 0 9.7 0.4 10.6 1.4 0.7 0.8 1 2.9 0.9 4.8 -0.3 3.3 -0.3 3.3 -24.4 3.6 -17.9 0.2 -24.3 -0 -25.2 -0.9 z m 46.7 -1.7 c 0.8 -0.5 1.1 -1.6 0.8 -2.4 -0.5 -1.2 -2.6 -1.6 -10.4 -1.9 -9.8 -0.3 -9.8 -0.3 -10.3 -32.3 -0.5 -32 -0.5 -32 -9.5 -32.3 -5 -0.2 -10 -0 -11.2 0.3 -1.2 0.3 -2.2 1.2 -2.2 2 0 0.8 0.9 1.9 1.9 2.5 1.1 0.6 4.9 1 8.5 1 6.6 0 6.6 0 6.3 29.2 -0.3 29.2 -0.3 29.2 -9.5 29.5 -8.1 0.3 -9.2 0.5 -9.2 2.1 0 1 0.3 2.1 0.7 2.5 0.4 0.4 10.2 0.7 21.8 0.7 11.6 -0 21.7 -0.4 22.5 -0.9 z M 200.1 139.8 c -0.7 -0.7 -1.2 -3.4 -1.2 -6.1 0 -2.7 0.5 -5.7 1 -6.8 0.8 -1.4 2.1 -1.9 5.3 -1.9 2.3 0 4.8 0.5 5.5 1.2 0.7 0.7 1.2 3.7 1.2 6.8 0 3.1 -0.5 6.1 -1.2 6.8 -0.7 0.7 -3 1.2 -5.3 1.2 -2.3 0 -4.6 -0.5 -5.3 -1.2 z m 8.6 -2 c 0.7 -0.7 1.2 -2.5 1.2 -4.1 0 -1.6 -0.5 -3.7 -1 -4.8 -0.6 -1.1 -1.9 -1.9 -2.9 -1.9 -1 0 -2.6 0.7 -3.5 1.6 -0.9 0.9 -1.6 3 -1.6 4.8 0 1.8 0.5 3.8 1.2 4.4 0.7 0.7 2.1 1.2 3.3 1.2 1.2 0 2.6 -0.5 3.3 -1.2 z m -38.3 -17.2 c -1.7 -0.8 -4.3 -2.8 -5.8 -4.6 -1.5 -1.8 -3 -4.3 -3.3 -5.7 -0.3 -1.4 -0.4 -4.9 -0.2 -8 0.3 -3.3 1.2 -6.6 2.5 -8.2 1.1 -1.5 3.5 -3.7 5.3 -5 1.8 -1.2 5.2 -2.8 7.4 -3.4 2.3 -0.6 8.1 -0.9 13.3 -0.6 9.2 0.5 9.2 0.5 7.9 -2.6 -1 -2.4 -2.3 -3.4 -5.6 -4.5 -4 -1.3 -5 -1.2 -12.1 0.8 -4.2 1.2 -8.7 2.1 -10 1.9 -1.3 -0.2 -2.7 -1.1 -3.3 -1.9 -0.5 -0.9 -0.7 -2.8 -0.3 -4.3 0.5 -2 1.9 -3.3 5.4 -4.8 3.4 -1.5 7.3 -2.2 14.2 -2.5 8.4 -0.3 10 -0.1 14 1.9 3.3 1.7 5.1 3.5 6.8 6.8 2 4 2.2 5.9 2.2 19.7 0 15.3 0 15.3 3.5 15.3 2.5 0 3.9 0.6 5 2.3 0.8 1.3 1.2 3.3 0.9 4.5 -0.3 1.2 -1.6 2.5 -2.8 2.8 -1.2 0.3 -4.9 0.4 -8.1 0.2 -5.1 -0.3 -6.1 -0.6 -6.9 -2.6 -0.5 -1.2 -1.2 -2.1 -1.5 -1.9 -0.3 0.2 -2.8 1.4 -5.5 2.7 -3.6 1.7 -7.1 2.5 -12.5 2.7 -4.8 0.2 -8.6 -0.2 -10.5 -1.1 z m 19.3 -2.9 c 1.5 -0.6 4.4 -2.2 6.4 -3.6 2 -1.3 4.2 -2.1 4.8 -1.7 0.6 0.4 1.1 1.4 1.1 2.4 0 1 0.5 2.3 1.2 2.9 0.7 0.7 3.2 1.2 5.8 1.2 2.5 -0 5.2 -0.4 5.9 -0.9 0.8 -0.5 1.1 -1.6 0.8 -2.4 -0.4 -0.9 -2.1 -1.7 -4.4 -1.9 -3.8 -0.3 -3.8 -0.3 -4.3 -16.8 -0.4 -14.2 -0.8 -17 -2.5 -20 -1.1 -1.9 -3.6 -4.4 -5.5 -5.5 -2.8 -1.6 -5.1 -2 -12 -2 -6.4 0 -9.7 0.6 -13.2 2.2 -3.5 1.6 -4.8 2.7 -4.8 4.2 0 1.1 0.6 2.3 1.3 2.6 0.7 0.3 3.7 -0.4 6.5 -1.5 3 -1.2 7.5 -2 10.7 -2 3 0 6.8 0.6 8.3 1.4 1.5 0.8 3.3 2.6 4 4 0.7 1.4 1.2 4 1.2 5.6 0 3 0 3 -4.8 2.2 -2.6 -0.4 -7.6 -0.8 -11 -0.7 -3.4 0.1 -8.3 0.9 -10.7 1.8 -2.4 0.9 -5.6 3 -7 4.7 -1.4 1.6 -3 4.7 -3.6 6.7 -0.8 2.7 -0.8 4.8 -0 7.8 0.6 2.2 2.2 5 3.5 6.3 1.3 1.2 4.1 2.9 6.3 3.7 2.4 0.9 5.7 1.2 8.6 0.9 2.6 -0.3 6 -1.1 7.5 -1.7 z m -15.4 -4.7 c -1.2 -0.5 -2.9 -2 -3.8 -3.2 -0.9 -1.3 -1.6 -3.7 -1.6 -5.5 0 -1.9 1 -4.3 2.4 -6.1 1.3 -1.6 4.2 -3.4 6.4 -4.1 2.2 -0.6 7 -1.1 10.8 -1.1 3.8 0.1 8 0.4 9.4 0.8 2.1 0.6 2.5 1.4 2.8 5.1 0.2 2.4 -0.3 5.5 -1 6.8 -0.7 1.3 -3.2 3.5 -5.6 4.9 -3.2 1.9 -6.1 2.7 -11 2.9 -3.7 0.2 -7.6 -0.1 -8.8 -0.6 z m 13.4 -2.6 c 2.9 -0.9 6.5 -2.9 8.2 -4.6 2 -2 3.1 -4.1 3.1 -6 0 -2.3 -0.6 -3.1 -2.8 -3.7 -1.5 -0.4 -5.7 -0.7 -9.2 -0.7 -4 0.1 -7.7 0.7 -9.7 1.8 -1.8 0.9 -4 2.8 -4.9 4.2 -1.3 2 -1.4 3 -0.5 5 0.6 1.4 2.6 3.1 4.4 3.9 1.8 0.8 4 1.4 4.8 1.5 0.9 0 3.9 -0.6 6.7 -1.5 z m 60.9 10.5 c -1.6 -0.5 -4 -1.9 -5.4 -3.2 -1.4 -1.3 -3.1 -3.7 -3.9 -5.5 -0.9 -2.2 -1.4 -7.6 -1.4 -17.2 0 -14 0 -14 -6 -14 -4.9 0 -6.2  -0.4 -7 -1.9 -0.6 -1.1 -1 -2.6 -1 -3.4 0 -0.8 0.7 -2.2 1.6 -3.1 1 -1 3.4 -1.6 7 -1.6 5.4 0 5.4 0 5.4 -8.3 0 -5.1 0.5 -8.8 1.2 -9.5 0.7 -0.7 2.4 -1.2 3.8 -1.2 1.4 0 3.1 0.5 3.8 1.2 0.7 0.7 1.2 4.4 1.2 9.5 0 8.3 0 8.3 12.7 8.6 12.7 0.3 12.7 0.3 13.7 3.1 0.7 1.9 0.6 3.3 -0.1 4.5 -0.9 1.4 -3.1 1.7 -13.8 2 -12.7 0.3 -12.7 0.3 -12.4 13.1 0.3 10.9 0.6 13.2 2.2 14.9 1 1.1 3.3 2.4 5.1 2.7 2.2 0.4 5.5 -0.2 10.6 -2.1 4.1 -1.5 8.8 -2.9 10.4 -3.2 2.2 -0.3 3.5 0.1 4.9 1.6 1.3 1.4 1.6 2.8 1.2 4.6 -0.4 1.6 -2.1 3.2 -4.4 4.4 -2.1 1 -6.2 2.6 -9.2 3.5 -3 0.9 -8.2 1.6 -11.5 1.5 -3.3 -0 -7.4 -0.5 -8.9 -0.9 z m 17.2 -2.5 c 3.5 -0.8 8.1 -2.4 10.2 -3.5 2.2 -1.1 4 -2.6 4 -3.4 0 -0.7 -0.6 -1.8 -1.2 -2.4 -0.9 -0.7 -3 -0.3 -7.2 1.5 -3.3 1.4 -8.9 2.7 -12.6 3 -6 0.5 -6.8 0.3 -9.5 -2 -2.9 -2.5 -2.9 -2.5 -3.3 -17.6 -0.3 -15.1 -0.3 -15.1 11.2 -15.1 6.3 0 12.2 -0.3 13.1 -0.6 0.9 -0.3 1.6 -1.4 1.6 -2.4 0 -1 -0.7 -2.1 -1.6 -2.4 -0.9 -0.3 -6.7 -0.6 -13 -0.6 -11.4 0 -11.4 0 -11.4 -7.8 -0 -4.3 -0.4 -8.4 -0.9 -9.1 -0.5 -0.7 -1.7 -1.2 -2.7 -1 -1.6 0.3 -1.9 1.5 -2.2 9.1 -0.3 8.7 -0.3 8.7 -5.5 8.8 -2.9 0 -5.8 0.4 -6.6 0.9 -0.7 0.5 -1.2 1.7 -1 2.7 0.3 1.6 1.4 1.9 6.6 2.2 6.2 0.3 6.2 0.3 6.2 13.5 0 7.3 0.5 14.8 1 16.8 0.5 2 2.1 4.6 3.4 5.8 1.3 1.2 4.1 2.9 6.3 3.6 2.1 0.8 5 1.4 6.3 1.4 1.4 0 5.3 -0.6 8.8 -1.5 z m 49.8 2.5 c -1.6 -0.5 -4 -1.9 -5.4 -3.2 -1.4 -1.3 -3.1 -3.7 -3.9 -5.5 -0.9 -2.2 -1.4 -7.6 -1.4 -17.2 0 -14 0 -14 -6 -14 -4.9 0 -6.2 -0.4 -7 -1.9 -0.6 -1.1 -1 -2.6 -1 -3.4 0 -0.8 0.7 -2.2 1.6 -3.1 1 -1 3.4 -1.6 7 -1.6 5.4 0 5.4 0 5.4 -8.3 0 -5.1 0.5 -8.8 1.2 -9.5 0.7 -0.7 2.4 -1.2 3.8 -1.2 1.4 0 3.1 0.5 3.8 1.2 0.7 0.7 1.2 4.4 1.2 9.5 0 8.3 0 8.3 12.7 8.6 12.7 0.3 12.7 0.3 13.7 3.1 0.7 1.9 0.6 3.3 -0.1 4.5 -0.9 1.4 -3.1 1.7 -13.8 2 -12.7 0.3 -12.7 0.3 -12.4 13.1 0.3 10.9 0.6 13.2 2.2 14.9 1 1.1 3.3 2.4 5.1 2.7 2.2 0.4 5.5 -0.2 10.6 -2.1 4.1 -1.5 8.8 -2.9 10.4 -3.2 2.2 -0.3 3.5 0.1 4.9 1.6 1.3 1.4 1.6 2.8 1.2 4.6 -0.4 1.6 -2.1 3.2 -4.4 4.4 -2.1 1 -6.2 2.6 -9.2 3.5 -3 0.9 -8.2 1.6 -11.5 1.5 -3.3 -0 -7.4 -0.5 -8.9 -0.9 z m 17.2 -2.5 c 3.5 -0.8 8.1 -2.4 10.2 -3.5 2.2 -1.1 4 -2.6 4 -3.4 0 -0.7 -0.6 -1.8 -1.2 -2.4 -0.9 -0.7 -3 -0.3 -7.2 1.5 -3.3 1.4 -8.9 2.7 -12.6 3 -6 0.5 -6.8 0.3 -9.5 -2 -2.9 -2.5 -2.9 -2.5 -3.3 -17.6 -0.3 -15.1 -0.3 -15.1 11.2 -15.1 6.3 0 12.2 -0.3 13.1 -0.6 0.9 -0.3 1.6 -1.4 1.6 -2.4 0 -1 -0.7 -2.1 -1.6 -2.4 -0.9 -0.3 -6.7 -0.6 -13 -0.6 -11.4 0 -11.4 0 -11.4 -7.8 -0 -4.3 -0.4 -8.4 -0.9 -9.1 -0.5 -0.7 -1.7 -1.2 -2.7 -1 -1.6 0.3 -1.9 1.5 -2.2 9.1 -0.3 8.7 -0.3 8.7 -5.5 8.8 -2.9 0 -5.8 0.4 -6.6 0.9 -0.7 0.5 -1.2 1.7 -1 2.7 0.3 1.6 1.4 1.9 6.6 2.2 6.2 0.3 6.2 0.3 6.2 13.5 0 7.3 0.5 14.8 1 16.8 0.5 2 2.1 4.6 3.4 5.8 1.3 1.2 4.1 2.9 6.3 3.6 2.1 0.8 5 1.4 6.3 1.4 1.4 0 5.3 -0.6 8.8 -1.5 z" id="path2926"/>
  <path style="stroke:none" d="m 20 200.2 c -6.6 -0.2 -7.6 -0.6 -8.8 -3 -0.9 -1.7 -0.9 -2.4 -0.3 -4 0.7 -1.6 1.4 -2 4.6 -2.7 2.1 -0.4 4.2 -0.9 4.6 -1 0.6 -0.2 0.7 -3.4 0.5 -11.6 -0.7 -27.8 -1.6 -59.6 -2 -68.7 l -0.4 -10 -1.8 -0.3 c -1 -0.2 -3.1 -0.5 -4.8 -0.8 -3.4 -0.5 -6.2 -2.8 -6.2 -5.2 0 -0.9 0.9 -2.4 2 -3.5 l 2 -1.9 16.9 0.2 c 18.1 0.2 18.6 0.3 19.9 3.8 0.8 2.1 -0.8 5.3 -3 5.8 -0.9 0.2 -3.3 0.6 -5.4 0.8 -4.9 0.6 -5.9 1.3 -6.6 5 -1.1 5.4 1.4 78 2.7 80.4 1.1 1.9 2.6 -1.8 15.7 -38.8 3 -8.6 6.3 -17.1 7.2 -18.9 0.9 -1.8 1.5 -3.7 1.4 -4.1 -0.2 -0.5 -2.6 -1 -5.9 -1.3 -3.1 -0.3 -6.1 -0.8 -6.8 -1.1 -2.1 -1.1 -3.2 -4 -2.5 -6.1 0.7 -2 2.2 -2.7 8.3 -4.1 L 55.2 108.3 56 86 c 0.4 -12.3 0.9 -32.5 1 -45 l 0.2 -22.7 -3.9 -0.8 c -2.1 -0.4 -4.3 -1.2 -4.9 -1.6 -1.5 -1.2 -1.3 -4.3 0.4 -6.4 l 1.4 -1.8 10.3 0 c 6.8 0 10.9 0.3 12 0.8 2.5 1.2 4.9 6.8 14.8 33.7 9.6 26.4 11.9 31.8 13 31.8 1.1 0 2.7 -4 11.5 -29.1 10.9 -31.1 11.9 -33.5 14.3 -35.5 2 -1.7 2.3 -1.7 12.4 -1.7 9.4 0 10.5 0.1 12.1 1.4 1.3 1 1.8 2 1.8 3.6 0 2.9 -1.1 3.8 -5.9 4.7 l -3.9 0.8 0.2 22 c 0.1 12.1 0.6 32.3 1 45 l 0.8 23 1.7 0.5 c 0.9 0.3 3.5 0.8 5.6 1.3 3.5 0.7 4.1 1 4.8 2.9 0.8 1.8 0.7 2.4 -0.1 4 -1.7 3.2 -2.5 3.3 -20.7 3.1 -16.9 -0.2 -17 -0.2 -18.2 -1.8 -1.7 -2.1 -1.6 -4.6 0.3 -6.5 1.2 -1.2 2.7 -1.7 6.1 -2.1 8 -0.9 7.6 0.3 7.5 -22.3 -0.1 -20.3 -1.3 -57.4 -2 -61.2 -0.2 -1.2 -0.7 -2.1 -1.2 -2 -1.2 0.4 -2.6 3.9 -10.2 25.3 -7.3 20.7 -11.5 31.8 -13 34.8 -0.5 0.9 -0.7 1.9 -0.6 2.1 0.2 0.3 2.9 0.7 6.2 1 5.2 0.4 6.1 0.7 7.8 2.4 3.8 3.8 1.8 7 -5.2 8.5 -2.6 0.5 -5 1.2 -5.3 1.6 -0.6 0.6 -2.3 47.7 -2.6 73.2 l -0.2 16.6 3.9 0.8 c 5.8 1.1 7.2 2.9 5.5 6.9 -1.4 3.3 -4.5 3.9 -15.7 3.1 -8.9 -0.6 -9.3 -0.7 -10.6 -2.5 C 86.6 195.4 85.3 192 75.2 164.5 66.2 139.8 63.8 134.1 62.6 134.1 c -1.2 0 -2.8 4.2 -11.6 28.9 -10.1 28.7 -12.2 33.9 -13.9 35.5 -1.5 1.3 -8.8 2.1 -17.2 1.8 z M 93.8 183 c 1.3 -4.3 2.9 -72.3 1.8 -78 -1 -5.2 -2.1 -6.1 -8.3 -6.7 -5.2 -0.5 -8.1 -2.3 -8.1 -5.1 0 -2.9 2.7 -4.8 8.2 -5.6 2.8 -0.4 5.5 -1 6 -1.3 0.7 -0.4 0.4 -1.8 -1.5 -6.2 C 90.6 77 86.3 65.6 82.4 54.8 71.9 25.9 70.7 22.9 69.4 24.2 c -1 1 -1.6 15.8 -2.1 46.2 -0.5 33.9 -0.3 36.8 2.3 38.2 0.6 0.3 3.2 0.8 5.8 1.1 5.2 0.5 7.9 2.3 7.9 5.3 0 3.2 -1.9 4.4 -8.3 5.4 -3.3 0.5 -6.1 1.1 -6.2 1.2 -0.2 0.2 0.9 3 2.3 6.4 1.4 3.3 6.3 16.5 10.8 29.3 9.9 28.1 10.7 29.7 11.9 25.7 l 0 0 z" id="path2949"/>
  <path style="stroke:none" d="m 123.4 198.8 c -1.5 -1 -0.6 -2.9 1.9 -3.8 1.7 -0.6 2.5 -1.3 2.9 -2.8 0.7 -2.7 1 -53.1 0.4 -55 -0.4 -1 -1.5 -1.8 -3.2 -2.3 -4.7 -1.4 -2.9 -4.7 2.5 -4.6 4.4 0 5.6 0.6 5.9 2.9 0.2 1.2 0.6 6.9 0.9 12.8 0.3 5.8 0.8 10.8 1 11.1 0.3 0.3 2.2 -0.6 4.4 -1.9 5.7 -3.4 8.1 -4.3 12.7 -4.3 5 -0 9.5 2.4 12.4 6.6 2.3 3.3 2.5 5.1 3.5 22.8 0.3 6.5 0.8 12.4 1.1 13 0.2 0.6 1.5 1.4 2.8 1.6 2.8 0.5 3.7 2.1 1.9 3.4 -1.5 1.1 -13.5 1.3 -16.2 0.2 -2.6 -1 -1.9 -2.9 1.2 -3.6 1.9 -0.5 2.7 -1 3 -2.4 0.3 -1 0.5 -7.9 0.5 -15.3 0 -12.4 -0.1 -13.7 -1.3 -15.8 -1.9 -3.2 -4.5 -4.9 -8.3 -5.5 -6.7 -1 -13.8 1.8 -16.7 6.7 -1.1 1.9 -1.3 3.7 -1.3 15.5 -0 7.3 0.2 14 0.4 14.8 0.3 1 1.3 1.7 2.9 2 2.7 0.6 3.2 1.4 2.2 2.9 -0.5 0.8 -2.4 1.1 -8.6 1.2 -4.4 0.1 -8.4 -0.1 -8.9 -0.4 l 0 0 z" id="path2951"/>
  <path d="m 15 199.4 c -2.4 -0.6 -3.2 -1.4 -3.9 -4 -0.6 -2.2 0.8 -3.3 5.6 -4.8 l 4 -1.2 -0 -10.1 c -0 -5.6 -0.1 -12.1 -0.2 -14.5 -0.1 -2.4 -0.5 -16 -0.8 -30.1 C 18.9 105.1 18.5 99.2 17.4 98.9 17 98.8 14.8 98.3 12.6 97.8 6.2 96.5 4.4 93.3 7.9 89.6 l 1.8 -1.9 14.3 0.3 c 18.4 0.4 19.8 0.6 21.1 2.7 0.9 1.4 0.9 2 0.3 3.7 -0.9 2.2 -1.5 2.5 -7.1 3.4 -5.5 0.9 -6.9 2 -7.5 5.8 -0.5 3.4 0.1 33.5 1.1 54.4 1.3 27.7 1.4 28.3 3.6 24.9 1.4 -2.2 5.9 -14.2 5.5 -14.8 -0.2 -0.3 -0.1 -0.6 0.2 -0.7 0.3 -0.1 1.7 -3.4 3.1 -7.3 1.4 -3.9 5.2 -14.1 8.3 -22.6 3.4 -9 5.5 -15.7 5.2 -16 -0.3 -0.3 -3.2 -0.9 -6.4 -1.4 -6 -0.8 -7.6 -1.7 -8.4 -4.6 -0.7 -2.4 2 -4.5 7.5 -5.9 l 4.8 -1.2 0.5 -8.9 c 0.3 -4.9 0.5 -11.1 0.4 -13.7 -0 -2.6 0.1 -9.3 0.3 -14.9 0.2 -5.6 0.5 -19.8 0.8 -31.6 l 0.4 -21.4 -3.5 -0.8 c -1.9 -0.4 -4.1 -1.1 -4.8 -1.5 -1.6 -0.9 -1.7 -3.5 -0.1 -6.2 l 1.2 -2 10.1 0.5 c 5.6 0.3 10.8 0.7 11.5 1 2.1 0.8 5.5 8.3 13.3 29.1 3.8 10.2 7.2 18.7 7.5 18.8 0.3 0.1 0.4 0.5 0.2 0.8 -0.4 0.6 4.8 14 5.9 15.4 1.9 2.4 2.4 1.2 14 -31 5.3 -14.7 10.2 -27.9 10.9 -29.3 2.2 -4.3 3.2 -4.6 14.5 -4.6 11.6 0 13.2 0.5 13.2 4.4 0 2.7 -0.9 3.4 -6.1 4.5 l -3.5 0.8 0.4 21.1 c 0.8 41 1.7 68.9 2.1 69.3 0.2 0.2 1.6 0.6 3.2 0.9 6.7 1.5 7.8 1.9 8.6 3.7 1 2.2 -0.5 5.5 -2.8 6.1 -0.8 0.2 -8.9 0.3 -18 0.2 -15.4 -0.2 -16.5 -0.3 -17.4 -1.5 -2.7 -3.7 -0.2 -6.7 6.6 -7.8 2.6 -0.4 5.1 -1.2 5.6 -1.7 2 -2 2.1 -9.9 0.7 -53.4 -0.2 -6.3 -0.3 -12.1 -0.3 -12.9 0.1 -4.3 -0.9 -16.5 -1.4 -17.3 -0.5 -0.8 -0.8 -0.8 -1.6 -0 -0.6 0.5 -0.9 1.1 -0.7 1.4 0.2 0.3 0 0.6 -0.3 0.8 -0.9 0.3 -10.3 26.2 -9.8 27 0.2 0.3 0.1 0.6 -0.2 0.6 -0.3 0 -1.5 2.4 -2.5 5.2 -1 2.9 -3.7 10.1 -5.9 15.9 -2.2 5.9 -4 10.8 -3.8 10.9 0.1 0.1 2.9 0.6 6 1 6.7 0.9 9 2.2 9.4 5.4 0.2 2 -0 2.3 -2.7 3.4 -1.6 0.7 -4.3 1.7 -6.1 2.1 l -3.1 0.8 -0.4 5.5 c -0.2 3 -0.6 11.3 -0.8 18.3 -0.2 7.1 -0.6 21.9 -1 32.8 -0.3 11 -0.6 23.1 -0.6 26.9 l -0 6.9 3.8 0.9 c 2.1 0.5 4.4 1.3 5.2 2 1.2 1 1.3 1.3 0.5 3.6 -0.6 1.7 -1.4 2.8 -2.6 3.2 -1.9 0.7 -19.1 0.4 -21.2 -0.5 -2.1 -0.8 -3.9 -4.7 -13.8 -31.2 -11 -29.3 -13 -34.1 -14.1 -34.1 -1.2 0 -2.5 3.1 -13 32.1 -5.4 14.9 -10.4 28.2 -11.1 29.7 -0.8 1.5 -2.1 2.9 -3.2 3.3 -2.4 0.9 -17.4 1.4 -20.4 0.6 l 0 0 z M 93.8 183.8 c 1.3 -2.1 3.1 -71.9 2 -79.1 -0.6 -4.3 -2.5 -5.8 -8.2 -6.8 -5.9 -1 -7.7 -2.2 -7.7 -4.8 0 -2.7 2.5 -4.2 8.9 -5.4 2.6 -0.5 4.9 -1.3 5.1 -1.7 C 94.2 85.2 77.4 39.6 76.6 38.9 76.4 38.7 76.2 38.3 76.2 37.9 c 0 -1.5 -3.9 -11.2 -4.5 -11.2 -0.4 0 -0.5 -0.3 -0.3 -0.6 0.2 -0.3 -0.1 -1.1 -0.5 -1.8 -2.6 -3.6 -3.1 3.9 -3.6 50.7 -0.2 20.5 -0.1 29.7 0.5 31.3 0.4 1.3 0.9 2.3 1 2.3 0.1 0 2.6 0.5 5.5 1.1 6.9 1.4 8.4 2.3 8.4 5.4 0 2.9 -1.6 3.9 -8.7 5.1 -2.7 0.5 -5.1 1.1 -5.2 1.3 -0.3 0.4 13.8 39.4 20.1 55.7 2.6 6.7 3.9 8.4 5 6.6 z" id="path2953"/>
  <path d="m 172.3 117.6 c -7.8 -3.7 -10.6 -11.8 -6.7 -19.6 2.1 -4.2 5.9 -7.2 11.1 -8.8 3.5 -1 8.2 -1.2 21.3 -0.6 l 2.7 0.1 0.2 -3 c 0.6 -9.6 -9.2 -13.3 -23.8 -9.1 -6.5 1.9 -8.1 1.8 -7.7 -0.5 0.2 -1.1 1.4 -2.1 4.3 -3.6 3.9 -2 4.4 -2 13.3 -2 8.9 0 9.3 0.1 12 1.9 1.6 1 3.6 3.1 4.6 4.6 1.9 2.9 2.1 4.4 3.4 27.9 0.4 8.2 0.8 8.9 4.9 9.5 5.7 0.9 3.8 4 -2.4 4 -4.8 0 -6.7 -0.9 -7.2 -3.6 -0.7 -3.3 -2.1 -3.2 -8.8 0.4 -5.9 3.1 -6.5 3.3 -12.3 3.5 -4.9 0.2 -6.6 -0 -8.8 -1.1 l 0 0 z m 20.3 -5.9 c 5 -2.4 7.7 -5.5 8.2 -9.3 0.7 -4.9 -0.1 -7.9 -2.3 -8.7 -2.3 -0.9 -17.4 -0.9 -20.4 0 -8.7 2.6 -12.1 11.2 -6.8 17.3 2.4 2.7 3.8 3.1 11.8 2.7 4.7 -0.2 6.9 -0.7 9.5 -1.9 l 0 0 z" id="path2955"/>
  <path d="m 185.4 198.9 c -1.9 -0.2 -2.5 -0.6 -2.5 -1.6 0 -1.5 1.2 -1.7 10.3 -2.4 9.4 -0.7 8.9 0.2 9.2 -18.6 0.3 -20.4 0.6 -19.7 -8.1 -20.9 -2.5 -0.4 -4.9 -0.8 -5.2 -1.1 -2.4 -1.5 1.9 -3.1 8.4 -3.1 6.5 0 8.8 0.9 9.8 3.6 0.4 1.2 1 9.4 1.4 18.3 0.7 17.2 1.3 20.2 4.3 21.1 0.8 0.2 4.2 0.6 7.6 0.8 3.4 0.2 6.8 0.5 7.6 0.7 1.8 0.4 2 2 0.3 2.7 -1.3 0.6 -38.7 1 -43 0.5 l 0 0 z" id="path2957"/>
  <path d="m 252.1 118.5 c -4.5 -1.4 -7.5 -3.6 -9.4 -6.9 -1.7 -2.9 -1.8 -3.6 -2.2 -16.8 -0.3 -9.4 -0.7 -14.1 -1.3 -14.8 -0.5 -0.6 -2.5 -1.2 -4.7 -1.4 -6.1 -0.7 -6.9 -0.9 -6.9 -2.4 0 -1.8 2 -2.7 6.3 -2.7 5.6 0 6 -0.6 6.7 -9.1 0.6 -7.8 1.3 -9.6 3.3 -8.5 1 0.5 1.3 1.9 1.7 8.1 0.3 5.4 0.8 7.7 1.5 8.3 0.7 0.6 4.6 1 12.1 1.2 11.6 0.4 13.5 0.9 12 3.2 -0.8 1.3 -5.8 2 -16 2.1 -5.4 0.1 -6.1 0.2 -7.7 1.8 l -1.7 1.7 0.3 12.7 c 0.2 7 0.6 13.5 1 14.4 1.2 2.8 4.8 4.7 9 4.6 4.2 -0 7.4 -0.7 15.7 -3.2 5.4 -1.6 6 -1.7 7 -0.7 1 1 0.9 1.2 -0.7 2.7 -2.7 2.5 -16.3 6.7 -21.3 6.6 -1 -0 -3.1 -0.4 -4.7 -0.9 l 0 0 z" id="path2959"/>
  <path d="m 318.2 118.2 c -4.6 -1.8 -7.2 -3.9 -8.8 -7.1 -1.3 -2.5 -1.5 -4.4 -1.9 -16.5 -0.3 -9.4 -0.7 -14 -1.3 -14.7 -0.5 -0.6 -2.5 -1.2 -4.7 -1.4 -6.1 -0.7 -6.9 -0.9 -6.9 -2.4 0 -1.8 2 -2.7 6.3 -2.7 5.6 0 6.1 -0.6 6.7 -9 0.6 -7.9 0.8 -8.6 2.6 -8.6 1.7 0 1.9 0.7 2.4 8.7 0.3 4.9 0.8 7.1 1.5 7.7 0.7 0.6 4.6 1 12.1 1.2 11.6 0.4 13.5 0.9 12 3.2 -0.8 1.3 -5.8 2 -16 2.1 -5.4 0.1 -6.1 0.3 -7.6 1.7 -1.6 1.6 -1.7 1.9 -1.7 12.5 0 14.2 0.6 17.2 4.1 19.5 2.5 1.6 3.1 1.7 7.9 1.4 2.9 -0.2 8 -1.2 11.3 -2.2 7.7 -2.3 9.4 -2.4 9.7 -0.6 0.1 0.9 -0.4 1.8 -1.4 2.4 -3.9 2.5 -16.2 6 -21.1 5.9 -1.2 -0 -3.6 -0.6 -5.3 -1.3 z" id="path2961"/>
  <path d="m 234.5 220 c -0.5 -1.4 0.8 -2.9 3.1 -3.4 1.4 -0.3 2.1 -1 2.7 -2.5 0.8 -2.3 0.9 -52.5 0.1 -55.4 -0.3 -1.1 -1.2 -1.9 -2.6 -2.4 -3.1 -1 -4 -2 -2.9 -3.3 0.6 -0.8 2.2 -1 5.8 -1 5.3 0 5 -0.2 6 4.2 0.2 1 0.7 1.9 1.2 1.9 0.4 0 3.5 -1.4 6.9 -3.1 6.2 -3.1 6.2 -3.1 11.9 -2.8 4.8 0.2 6.5 0.6 9.8 2.4 4.9 2.5 8.3 6 10.9 11 1.7 3.4 1.9 4.4 1.9 10.5 0 5.9 -0.2 7.2 -1.7 10.1 -2.2 4.3 -6.7 8.9 -10.5 10.6 -7.8 3.5 -15.1 3 -23.6 -1.4 -3.9 -2.1 -5.5 -2.6 -6.1 -2 -0.5 0.5 -0.8 4.3 -0.8 10.9 0 12.1 0 12.1 7.2 12.1 5.8 0 8.8 0.6 9.3 1.9 0.9 2.4 -1.6 2.9 -15.2 2.9 -11.1 0 -13.2 -0.2 -13.5 -1 z m 39.4 -27.7 c 3.8 -1.8 7.4 -5.5 9 -9.2 1.2 -2.8 1.3 -10.9 0.2 -14.8 -0.4 -1.5 -1.9 -3.8 -3.7 -5.6 -9.2 -9.2 -25.2 -7.2 -31 3.7 -1.9 3.6 -2 12.8 -0.2 17.5 1.4 3.7 5.4 7.4 9.5 8.9 4.5 1.6 12.3 1.4 16.3 -0.5 z" id="path2963"/>
  <path d="m 291.4 220 c -0.5 -1.4 0.8 -2.9 3.2 -3.4 1.3 -0.3 2.3 -1 2.7 -2.1 0.9 -2.3 0.8 -53.8 -0 -56.1 -0.4 -1.2 -1.3 -1.9 -2.7 -2.2 -2.7 -0.5 -3.9 -1.9 -2.7 -3.3 0.7 -0.8 2 -1 6 -0.8 l 5.1 0.2 0.6 2.9 c 0.3 1.6 0.9 2.9 1.3 2.9 0.4 0 3.6 -1.4 7.1 -3.1 6.3 -3.1 6.4 -3.1 11.9 -2.8 9.3 0.5 16.7 5.2 20.4 12.9 2.8 5.8 3.4 9.4 2.6 14 -2.2 12.7 -10.7 19.9 -23.1 19.9 -5.5 -0 -9.1 -1.1 -13.5 -3.8 -1.5 -1 -3.5 -1.8 -4.3 -1.9 -1.5 -0.2 -1.5 0.1 -2.1 7.4 -0.7 8.3 -0.2 13.2 1.4 14.8 0.7 0.7 2.6 1 6.2 1.1 6.6 0.1 8.5 0.6 8.8 2.4 0.3 2 -1.2 2.2 -15.6 2.3 -10.7 0 -12.8 -0.2 -13.1 -1 l 0 0 z m 40.5 -28.3 c 7.2 -3.7 10.3 -10.7 8.8 -20 -0.8 -5.1 -2.6 -8.2 -6.4 -11 -8.9 -6.6 -22.1 -4.6 -28.1 4.3 -2.1 3.2 -2.2 3.6 -2.2 9.8 0 9.4 1.4 12.6 6.8 16.1 3.4 2.2 6.2 2.9 11.9 2.9 4.2 0.1 5.4 -0.2 9.1 -2.2 l 0 0 z" id="path2965"/>
  <path d="m 356.4 199 c -0.5 -0.2 -0.8 -0.9 -0.8 -1.7 0 -1.5 0.9 -1.8 8.3 -2.3 6.3 -0.4 7.5 -1 8.7 -3.9 1.2 -3 1.8 -48.4 0.6 -52.1 -0.8 -2.8 -1.1 -2.9 -8.4 -3.5 -5.3 -0.5 -7.4 -1.3 -7 -2.9 0.3 -1.5 2.6 -2 9.3 -2 7.7 0 8.9 0.4 10.4 3.5 1.2 2.3 1.4 5.4 2.1 28.4 0.8 26.5 1.2 29.2 3.9 31.4 0.6 0.5 3.9 1 7.9 1.3 7.2 0.4 9.9 1.4 8.3 3 -0.7 0.7 -5.5 0.9 -21.7 1 -11.4 0.1 -21.2 -0 -21.6 -0.2 z" id="path2967"/>
  <path d="m 423.4 198.5 c -5.1 -2 -9.7 -5.6 -12 -9.5 -3.9 -6.7 -4.7 -16.5 -1.8 -23 2 -4.4 7.7 -10.3 12.1 -12.3 6.7 -3.2 17.5 -3.4 24 -0.5 7 3.2 12.5 10.6 13.3 18.1 0.3 3 0.2 3.6 -0.8 4 -0.7 0.3 -9.8 0.8 -20.2 1.2 -10.5 0.4 -19.9 0.9 -21 1.2 -6.1 1.5 0.4 13.7 8.8 16.6 5.8 2 15.1 0.9 25.3 -2.9 7.1 -2.6 10.2 -2.1 6.9 1.3 -3.7 3.7 -13.9 6.9 -23.4 7.2 -5.9 0.2 -7.3 0.1 -11 -1.3 z m 28.7 -28.5 c 0.5 -1.4 -1 -5.7 -2.9 -8.2 -4.3 -5.7 -16.3 -7.7 -24.8 -4.1 -3.7 1.5 -7.8 5.6 -9.1 9 -1 2.6 -1 3.2 -0.2 3.7 0.5 0.3 9 0.6 18.8 0.6 15 0 17.9 -0.1 18.2 -1 z" id="path2969"/>
  <path d="m 202.8 137.5 c -2.9 -2.1 -0.8 -9.9 2.7 -9.9 2.2 0 3.7 2.4 3.7 5.9 0 4.4 -3.2 6.4 -6.5 4 z" id="path2971"/>

</g>
</svg>
